<?xml version="1.0" encoding="UTF-8" standalone="no"?>
<!DOCTYPE svg PUBLIC "-//W3C//DTD SVG 1.1//EN" "http://www.w3.org/Graphics/SVG/1.1/DTD/svg11.dtd">
<!-- Created with Vectornator (http://vectornator.io/) -->
<svg height="100%" stroke-miterlimit="10" style="fill-rule:nonzero;clip-rule:evenodd;stroke-linecap:round;stroke-linejoin:round;" version="1.1" viewBox="0 0 100 98.5303" width="100%" xml:space="preserve" xmlns="http://www.w3.org/2000/svg" xmlns:vectornator="http://vectornator.io" xmlns:xlink="http://www.w3.org/1999/xlink">
<defs/>
<g id="Sans-titre" vectornator:layerName="Sans titre">
<path d="M32 18L42 18L42 22L32 22L32 18ZM58 22L68 22L68 18L58 18L58 22ZM32 82L42 82L42 78L32 78L32 82ZM58 82L68 82L68 78L58 78L58 82ZM52 36L52 28L48 28L48 36L52 36ZM48 64L48 72L52 72L52 64L48 64ZM26 9L22 9C20.9 9 20 9.9 20 11L20 29C20 30.1 20.9 31 22 31L26 31C27.1 31 28 30.1 28 29L28 11C28 9.9 27.1 9 26 9ZM78 9L74 9C72.9 9 72 9.9 72 11L72 29C72 30.1 72.9 31 74 31L78 31C79.1 31 80 30.1 80 29L80 11C80 9.9 79.1 9 78 9ZM26 69L22 69C20.9 69 20 69.9 20 71L20 89C20 90.1 20.9 91 22 91L26 91C27.1 91 28 90.1 28 89L28 71C28 69.9 27.1 69 26 69ZM78 69L74 69C72.9 69 72 69.9 72 71L72 89C72 90.1 72.9 91 74 91L78 91C79.1 91 80 90.1 80 89L80 71C80 69.9 79.1 69 78 69ZM54 16L46 16L46 24L54 24L54 16ZM44 60L56 60L56 40L44 40L44 60ZM46 84L54 84L54 76L46 76L46 84Z" fill="#000000" fill-rule="nonzero" opacity="1" stroke="none" vectornator:layerName="path"/>
</g>
</svg>
