<?xml version="1.0" encoding="UTF-8" standalone="no"?>
<!DOCTYPE svg PUBLIC "-//W3C//DTD SVG 1.1//EN" "http://www.w3.org/Graphics/SVG/1.1/DTD/svg11.dtd">
<!-- Created with Vectornator (http://vectornator.io/) -->
<svg height="100%" stroke-miterlimit="10" style="fill-rule:nonzero;clip-rule:evenodd;stroke-linecap:round;stroke-linejoin:round;" version="1.1" viewBox="0 0 24 18.8218" width="100%" xml:space="preserve" xmlns="http://www.w3.org/2000/svg" xmlns:vectornator="http://vectornator.io" xmlns:xlink="http://www.w3.org/1999/xlink">
<defs/>
<g id="Layer-2" vectornator:layerName="Layer 2">
<path d="M20 3.66088L16.54 3.66088L15.94 1.86088C15.703 1.14501 15.0341 0.661451 14.28 0.66088L9.72 0.66088C8.96592 0.661451 8.297 1.14501 8.06 1.86088L7.46 3.66088L4 3.66088C3.03577 3.66634 2.25546 4.44665 2.25 5.41088L2.25 16.4109C2.25546 17.3751 3.03577 18.1554 4 18.1609L20 18.1609C20.9642 18.1554 21.7445 17.3751 21.75 16.4109L21.75 5.41088C21.7445 4.44665 20.9642 3.66634 20 3.66088ZM20.25 16.4109C20.25 16.549 20.1381 16.6609 20 16.6609L4 16.6609C3.86193 16.6609 3.75 16.549 3.75 16.4109L3.75 5.41088C3.75 5.27281 3.86193 5.16088 4 5.16088L8 5.16088C8.32152 5.16064 8.60711 4.95549 8.71 4.65088L9.48 2.33088C9.51718 2.23006 9.61256 2.16251 9.72 2.16088L14.28 2.16088C14.3874 2.16251 14.4828 2.23006 14.52 2.33088L15.29 4.65088C15.3929 4.95549 15.6785 5.16064 16 5.16088L20 5.16088C20.1381 5.16088 20.25 5.27281 20.25 5.41088L20.25 16.4109ZM12 5.66088C9.37665 5.66088 7.25 7.78753 7.25 10.4109C7.25 13.0342 9.37665 15.1609 12 15.1609C14.6234 15.1609 16.75 13.0342 16.75 10.4109C16.75 7.78753 14.6234 5.66088 12 5.66088ZM12 13.6609C10.2051 13.6609 8.75 12.2058 8.75 10.4109C8.75 8.61595 10.2051 7.16088 12 7.16088C13.7949 7.16088 15.25 8.61595 15.25 10.4109C15.2445 12.2035 13.7926 13.6554 12 13.6609Z" fill="#000000" fill-rule="nonzero" opacity="1" stroke="none" vectornator:layerName="path"/>
</g>
<clipPath id="ArtboardFrame">
<rect height="18.8218" width="24" x="0" y="0"/>
</clipPath>
<g clip-path="url(#ArtboardFrame)" id="Sans-titre" vectornator:layerName="Sans titre">
<g fill="#000000" opacity="1" stroke="none" vectornator:layerName="text">
<path d="M3.82 37.004L4.2 37.004C4.17867 36.852 4.13333 36.718 4.064 36.602C3.99467 36.486 3.908 36.3893 3.804 36.312C3.7 36.2347 3.58133 36.176 3.448 36.136C3.31467 36.096 3.17333 36.076 3.024 36.076C2.80533 36.076 2.61133 36.1153 2.442 36.194C2.27267 36.2727 2.13133 36.38 2.018 36.516C1.90467 36.652 1.81867 36.8113 1.76 36.994C1.70133 37.1767 1.672 37.372 1.672 37.58C1.672 37.788 1.69933 37.9827 1.754 38.164C1.80867 38.3453 1.89067 38.5027 2 38.636C2.10933 38.7693 2.24667 38.874 2.412 38.95C2.57733 39.026 2.77067 39.064 2.992 39.064C3.35733 39.064 3.64533 38.964 3.856 38.764C4.06667 38.564 4.19067 38.284 4.228 37.924L3.848 37.924C3.84 38.0413 3.816 38.1507 3.776 38.252C3.736 38.3533 3.68067 38.4407 3.61 38.514C3.53933 38.5873 3.45533 38.6447 3.358 38.686C3.26067 38.7273 3.14933 38.748 3.024 38.748C2.85333 38.748 2.70667 38.716 2.584 38.652C2.46133 38.588 2.36067 38.502 2.282 38.394C2.20333 38.286 2.14533 38.1593 2.108 38.014C2.07067 37.8687 2.052 37.7147 2.052 37.552C2.052 37.4027 2.07067 37.2587 2.108 37.12C2.14533 36.9813 2.20333 36.858 2.282 36.75C2.36067 36.642 2.46067 36.556 2.582 36.492C2.70333 36.428 2.84933 36.396 3.02 36.396C3.22 36.396 3.39267 36.4467 3.538 36.548C3.68333 36.6493 3.77733 36.8013 3.82 37.004Z"/>
<path d="M4.632 36.932L4.632 39L4.972 39L4.972 38.08C4.972 37.9467 4.98533 37.8287 5.012 37.726C5.03867 37.6233 5.08133 37.536 5.14 37.464C5.19867 37.392 5.276 37.3373 5.372 37.3C5.468 37.2627 5.584 37.244 5.72 37.244L5.72 36.884C5.536 36.8787 5.384 36.916 5.264 36.996C5.144 37.076 5.04267 37.2 4.96 37.368L4.952 37.368L4.952 36.932L4.632 36.932Z"/>
<path d="M7.34 37.768L6.152 37.768C6.15733 37.688 6.17467 37.6127 6.204 37.542C6.23333 37.4713 6.27333 37.4093 6.324 37.356C6.37467 37.3027 6.43533 37.2607 6.506 37.23C6.57667 37.1993 6.656 37.184 6.744 37.184C6.82933 37.184 6.90733 37.1993 6.978 37.23C7.04867 37.2607 7.11 37.302 7.162 37.354C7.214 37.406 7.25533 37.468 7.286 37.54C7.31667 37.612 7.33467 37.688 7.34 37.768ZM7.668 38.344L7.332 38.344C7.30267 38.48 7.242 38.5813 7.15 38.648C7.058 38.7147 6.94 38.748 6.796 38.748C6.684 38.748 6.58667 38.7293 6.504 38.692C6.42133 38.6547 6.35333 38.6047 6.3 38.542C6.24667 38.4793 6.208 38.4073 6.184 38.326C6.16 38.2447 6.14933 38.1587 6.152 38.068L7.7 38.068C7.70533 37.9427 7.694 37.8107 7.666 37.672C7.638 37.5333 7.58733 37.4053 7.514 37.288C7.44067 37.1707 7.34333 37.074 7.222 36.998C7.10067 36.922 6.948 36.884 6.764 36.884C6.62267 36.884 6.49267 36.9107 6.374 36.964C6.25533 37.0173 6.15267 37.092 6.066 37.188C5.97933 37.284 5.912 37.3973 5.864 37.528C5.816 37.6587 5.792 37.8027 5.792 37.96C5.79733 38.1173 5.82067 38.2627 5.862 38.396C5.90333 38.5293 5.96533 38.644 6.048 38.74C6.13067 38.836 6.23267 38.9107 6.354 38.964C6.47533 39.0173 6.61867 39.044 6.784 39.044C7.01867 39.044 7.21333 38.9853 7.368 38.868C7.52267 38.7507 7.62267 38.576 7.668 38.344Z"/>
<path d="M9.884 38.992C9.82533 39.0267 9.744 39.044 9.64 39.044C9.552 39.044 9.482 39.0193 9.43 38.97C9.378 38.9207 9.352 38.84 9.352 38.728C9.25867 38.84 9.15 38.9207 9.026 38.97C8.902 39.0193 8.768 39.044 8.624 39.044C8.53067 39.044 8.442 39.0333 8.358 39.012C8.274 38.9907 8.20133 38.9573 8.14 38.912C8.07867 38.8667 8.03 38.8073 7.994 38.734C7.958 38.6607 7.94 38.572 7.94 38.468C7.94 38.3507 7.96 38.2547 8 38.18C8.04 38.1053 8.09267 38.0447 8.158 37.998C8.22333 37.9513 8.298 37.916 8.382 37.892C8.466 37.868 8.552 37.848 8.64 37.832C8.73333 37.8133 8.822 37.7993 8.906 37.79C8.99 37.7807 9.064 37.7673 9.128 37.75C9.192 37.7327 9.24267 37.7073 9.28 37.674C9.31733 37.6407 9.336 37.592 9.336 37.528C9.336 37.4533 9.322 37.3933 9.294 37.348C9.266 37.3027 9.23 37.268 9.186 37.244C9.142 37.22 9.09267 37.204 9.038 37.196C8.98333 37.188 8.92933 37.184 8.876 37.184C8.732 37.184 8.612 37.2113 8.516 37.266C8.42 37.3207 8.368 37.424 8.36 37.576L8.02 37.576C8.02533 37.448 8.052 37.34 8.1 37.252C8.148 37.164 8.212 37.0927 8.292 37.038C8.372 36.9833 8.46333 36.944 8.566 36.92C8.66867 36.896 8.77867 36.884 8.896 36.884C8.98933 36.884 9.082 36.8907 9.174 36.904C9.266 36.9173 9.34933 36.9447 9.424 36.986C9.49867 37.0273 9.55867 37.0853 9.604 37.16C9.64933 37.2347 9.672 37.332 9.672 37.452L9.672 38.516C9.672 38.596 9.67667 38.6547 9.686 38.692C9.69533 38.7293 9.72667 38.748 9.78 38.748C9.80933 38.748 9.844 38.7413 9.884 38.728L9.884 38.992ZM9.332 37.932C9.28933 37.964 9.23333 37.9873 9.164 38.002C9.09467 38.0167 9.022 38.0287 8.946 38.038C8.87 38.0473 8.79333 38.058 8.716 38.07C8.63867 38.082 8.56933 38.1013 8.508 38.128C8.44667 38.1547 8.39667 38.1927 8.358 38.242C8.31933 38.2913 8.3 38.3587 8.3 38.444C8.3 38.5 8.31133 38.5473 8.334 38.586C8.35667 38.6247 8.386 38.656 8.422 38.68C8.458 38.704 8.5 38.7213 8.548 38.732C8.596 38.7427 8.64667 38.748 8.7 38.748C8.812 38.748 8.908 38.7327 8.988 38.702C9.068 38.6713 9.13333 38.6327 9.184 38.586C9.23467 38.5393 9.272 38.4887 9.296 38.434C9.32 38.3793 9.332 38.328 9.332 38.28L9.332 37.932Z"/>
<path d="M10.672 36.932L10.672 36.312L10.332 36.312L10.332 36.932L9.98 36.932L9.98 37.232L10.332 37.232L10.332 38.548C10.332 38.644 10.3413 38.7213 10.36 38.78C10.3787 38.8387 10.4073 38.884 10.446 38.916C10.4847 38.948 10.5353 38.97 10.598 38.982C10.6607 38.994 10.736 39 10.824 39L11.084 39L11.084 38.7L10.928 38.7C10.8747 38.7 10.8313 38.698 10.798 38.694C10.7647 38.69 10.7387 38.6813 10.72 38.668C10.7013 38.6547 10.6887 38.636 10.682 38.612C10.6753 38.588 10.672 38.556 10.672 38.516L10.672 37.232L11.084 37.232L11.084 36.932L10.672 36.932Z"/>
<path d="M12.896 37.768L11.708 37.768C11.7133 37.688 11.7307 37.6127 11.76 37.542C11.7893 37.4713 11.8293 37.4093 11.88 37.356C11.9307 37.3027 11.9913 37.2607 12.062 37.23C12.1327 37.1993 12.212 37.184 12.3 37.184C12.3853 37.184 12.4633 37.1993 12.534 37.23C12.6047 37.2607 12.666 37.302 12.718 37.354C12.77 37.406 12.8113 37.468 12.842 37.54C12.8727 37.612 12.8907 37.688 12.896 37.768ZM13.224 38.344L12.888 38.344C12.8587 38.48 12.798 38.5813 12.706 38.648C12.614 38.7147 12.496 38.748 12.352 38.748C12.24 38.748 12.1427 38.7293 12.06 38.692C11.9773 38.6547 11.9093 38.6047 11.856 38.542C11.8027 38.4793 11.764 38.4073 11.74 38.326C11.716 38.2447 11.7053 38.1587 11.708 38.068L13.256 38.068C13.2613 37.9427 13.25 37.8107 13.222 37.672C13.194 37.5333 13.1433 37.4053 13.07 37.288C12.9967 37.1707 12.8993 37.074 12.778 36.998C12.6567 36.922 12.504 36.884 12.32 36.884C12.1787 36.884 12.0487 36.9107 11.93 36.964C11.8113 37.0173 11.7087 37.092 11.622 37.188C11.5353 37.284 11.468 37.3973 11.42 37.528C11.372 37.6587 11.348 37.8027 11.348 37.96C11.3533 38.1173 11.3767 38.2627 11.418 38.396C11.4593 38.5293 11.5213 38.644 11.604 38.74C11.6867 38.836 11.7887 38.9107 11.91 38.964C12.0313 39.0173 12.1747 39.044 12.34 39.044C12.5747 39.044 12.7693 38.9853 12.924 38.868C13.0787 38.7507 13.1787 38.576 13.224 38.344Z"/>
<path d="M13.856 37.984C13.856 37.8827 13.8667 37.784 13.888 37.688C13.9093 37.592 13.944 37.5067 13.992 37.432C14.04 37.3573 14.104 37.2973 14.184 37.252C14.264 37.2067 14.3613 37.184 14.476 37.184C14.5933 37.184 14.6933 37.206 14.776 37.25C14.8587 37.294 14.926 37.352 14.978 37.424C15.03 37.496 15.068 37.5793 15.092 37.674C15.116 37.7687 15.128 37.8667 15.128 37.968C15.128 38.064 15.1167 38.1587 15.094 38.252C15.0713 38.3453 15.0347 38.4287 14.984 38.502C14.9333 38.5753 14.868 38.6347 14.788 38.68C14.708 38.7253 14.6107 38.748 14.496 38.748C14.3867 38.748 14.2913 38.7267 14.21 38.684C14.1287 38.6413 14.062 38.584 14.01 38.512C13.958 38.44 13.9193 38.358 13.894 38.266C13.8687 38.174 13.856 38.08 13.856 37.984ZM15.456 39L15.456 36.144L15.116 36.144L15.116 37.208L15.108 37.208C15.0707 37.1467 15.0247 37.0953 14.97 37.054C14.9153 37.0127 14.8573 36.9793 14.796 36.954C14.7347 36.9287 14.6733 36.9107 14.612 36.9C14.5507 36.8893 14.4933 36.884 14.44 36.884C14.2827 36.884 14.1447 36.9127 14.026 36.97C13.9073 37.0273 13.8087 37.1047 13.73 37.202C13.6513 37.2993 13.5927 37.4133 13.554 37.544C13.5153 37.6747 13.496 37.8133 13.496 37.96C13.496 38.1067 13.516 38.2453 13.556 38.376C13.596 38.5067 13.6553 38.6213 13.734 38.72C13.8127 38.8187 13.9113 38.8973 14.03 38.956C14.1487 39.0147 14.288 39.044 14.448 39.044C14.592 39.044 14.724 39.0187 14.844 38.968C14.964 38.9173 15.052 38.8347 15.108 38.72L15.116 38.72L15.116 39L15.456 39Z"/>
<path d="M17.104 36.144L17.104 39L17.444 39L17.444 38.724L17.452 38.724C17.4893 38.7853 17.5353 38.8367 17.59 38.878C17.6447 38.9193 17.7027 38.952 17.764 38.976C17.8253 39 17.8873 39.0173 17.95 39.028C18.0127 39.0387 18.0693 39.044 18.12 39.044C18.2773 39.044 18.4153 39.016 18.534 38.96C18.6527 38.904 18.7513 38.8273 18.83 38.73C18.9087 38.6327 18.9673 38.5187 19.006 38.388C19.0447 38.2573 19.064 38.1187 19.064 37.972C19.064 37.8253 19.044 37.6867 19.004 37.556C18.964 37.4253 18.9047 37.31 18.826 37.21C18.7473 37.11 18.6487 37.0307 18.53 36.972C18.4113 36.9133 18.272 36.884 18.112 36.884C17.968 36.884 17.836 36.91 17.716 36.962C17.596 37.014 17.508 37.0973 17.452 37.212L17.444 37.212L17.444 36.144L17.104 36.144ZM18.704 37.948C18.704 38.0493 18.6933 38.148 18.672 38.244C18.6507 38.34 18.616 38.4253 18.568 38.5C18.52 38.5747 18.4567 38.6347 18.378 38.68C18.2993 38.7253 18.2013 38.748 18.084 38.748C17.9667 38.748 17.8667 38.726 17.784 38.682C17.7013 38.638 17.634 38.58 17.582 38.508C17.53 38.436 17.492 38.3527 17.468 38.258C17.444 38.1633 17.432 38.0653 17.432 37.964C17.432 37.868 17.4433 37.7733 17.466 37.68C17.4887 37.5867 17.5253 37.5033 17.576 37.43C17.6267 37.3567 17.692 37.2973 17.772 37.252C17.852 37.2067 17.9493 37.184 18.064 37.184C18.1733 37.184 18.2687 37.2053 18.35 37.248C18.4313 37.2907 18.498 37.348 18.55 37.42C18.602 37.492 18.6407 37.574 18.666 37.666C18.6913 37.758 18.704 37.852 18.704 37.948Z"/>
<path d="M20.276 39.276C20.236 39.3773 20.1967 39.4627 20.158 39.532C20.1193 39.6013 20.0767 39.658 20.03 39.702C19.9833 39.746 19.9313 39.778 19.874 39.798C19.8167 39.818 19.7507 39.828 19.676 39.828C19.636 39.828 19.596 39.8253 19.556 39.82C19.516 39.8147 19.4773 39.8053 19.44 39.792L19.44 39.48C19.4693 39.4933 19.5033 39.5047 19.542 39.514C19.5807 39.5233 19.6133 39.528 19.64 39.528C19.7093 39.528 19.7673 39.5113 19.814 39.478C19.8607 39.4447 19.896 39.3973 19.92 39.336L20.06 38.988L19.24 36.932L19.624 36.932L20.228 38.624L20.236 38.624L20.816 36.932L21.176 36.932L20.276 39.276Z"/>
<path d="M23.012 38.68L23.012 36.464L23.652 36.464C23.828 36.464 23.976 36.4887 24.096 36.538C24.216 36.5873 24.314 36.6593 24.39 36.754C24.466 36.8487 24.5207 36.9633 24.554 37.098C24.5873 37.2327 24.604 37.3853 24.604 37.556C24.604 37.732 24.586 37.882 24.55 38.006C24.514 38.13 24.468 38.2333 24.412 38.316C24.356 38.3987 24.2927 38.464 24.222 38.512C24.1513 38.56 24.08 38.5967 24.008 38.622C23.936 38.6473 23.868 38.6633 23.804 38.67C23.74 38.6767 23.6867 38.68 23.644 38.68L23.012 38.68ZM22.632 36.144L22.632 39L23.612 39C23.8493 39 24.0547 38.9667 24.228 38.9C24.4013 38.8333 24.544 38.7367 24.656 38.61C24.768 38.4833 24.8507 38.3273 24.904 38.142C24.9573 37.9567 24.984 37.744 24.984 37.504C24.984 37.0453 24.8653 36.704 24.628 36.48C24.3907 36.256 24.052 36.144 23.612 36.144L22.632 36.144Z"/>
<path d="M27.44 39L28.1 36.932L27.748 36.932L27.284 38.624L27.276 38.624L26.844 36.932L26.472 36.932L26.056 38.624L26.048 38.624L25.58 36.932L25.204 36.932L25.868 39L26.236 39L26.652 37.356L26.66 37.356L27.08 39L27.44 39Z"/>
<path d="M28.784 36.56L28.784 36.144L28.444 36.144L28.444 36.56L28.784 36.56ZM28.444 36.932L28.444 39L28.784 39L28.784 36.932L28.444 36.932Z"/>
<path d="M30.412 36.932L30.412 39L30.752 39L30.752 38.08C30.752 37.9467 30.7653 37.8287 30.792 37.726C30.8187 37.6233 30.8613 37.536 30.92 37.464C30.9787 37.392 31.056 37.3373 31.152 37.3C31.248 37.2627 31.364 37.244 31.5 37.244L31.5 36.884C31.316 36.8787 31.164 36.916 31.044 36.996C30.924 37.076 30.8227 37.2 30.74 37.368L30.732 37.368L30.732 36.932L30.412 36.932Z"/>
<path d="M32.116 36.56L32.116 36.144L31.776 36.144L31.776 36.56L32.116 36.56ZM31.776 36.932L31.776 39L32.116 39L32.116 36.932L31.776 36.932Z"/>
<path d="M32.892 37.984C32.892 37.8827 32.9027 37.784 32.924 37.688C32.9453 37.592 32.98 37.5067 33.028 37.432C33.076 37.3573 33.14 37.2973 33.22 37.252C33.3 37.2067 33.3973 37.184 33.512 37.184C33.6293 37.184 33.7293 37.206 33.812 37.25C33.8947 37.294 33.962 37.352 34.014 37.424C34.066 37.496 34.104 37.5793 34.128 37.674C34.152 37.7687 34.164 37.8667 34.164 37.968C34.164 38.064 34.1527 38.1587 34.13 38.252C34.1073 38.3453 34.0707 38.4287 34.02 38.502C33.9693 38.5753 33.904 38.6347 33.824 38.68C33.744 38.7253 33.6467 38.748 33.532 38.748C33.4227 38.748 33.3273 38.7267 33.246 38.684C33.1647 38.6413 33.098 38.584 33.046 38.512C32.994 38.44 32.9553 38.358 32.93 38.266C32.9047 38.174 32.892 38.08 32.892 37.984ZM34.492 39L34.492 36.144L34.152 36.144L34.152 37.208L34.144 37.208C34.1067 37.1467 34.0607 37.0953 34.006 37.054C33.9513 37.0127 33.8933 36.9793 33.832 36.954C33.7707 36.9287 33.7093 36.9107 33.648 36.9C33.5867 36.8893 33.5293 36.884 33.476 36.884C33.3187 36.884 33.1807 36.9127 33.062 36.97C32.9433 37.0273 32.8447 37.1047 32.766 37.202C32.6873 37.2993 32.6287 37.4133 32.59 37.544C32.5513 37.6747 32.532 37.8133 32.532 37.96C32.532 38.1067 32.552 38.2453 32.592 38.376C32.632 38.5067 32.6913 38.6213 32.77 38.72C32.8487 38.8187 32.9473 38.8973 33.066 38.956C33.1847 39.0147 33.324 39.044 33.484 39.044C33.628 39.044 33.76 39.0187 33.88 38.968C34 38.9173 34.088 38.8347 34.144 38.72L34.152 38.72L34.152 39L34.492 39Z"/>
<path d="M37.064 39L37.724 36.932L37.372 36.932L36.908 38.624L36.9 38.624L36.468 36.932L36.096 36.932L35.68 38.624L35.672 38.624L35.204 36.932L34.828 36.932L35.492 39L35.86 39L36.276 37.356L36.284 37.356L36.704 39L37.064 39Z"/>
<path d="M39.88 38.992C39.8213 39.0267 39.74 39.044 39.636 39.044C39.548 39.044 39.478 39.0193 39.426 38.97C39.374 38.9207 39.348 38.84 39.348 38.728C39.2547 38.84 39.146 38.9207 39.022 38.97C38.898 39.0193 38.764 39.044 38.62 39.044C38.5267 39.044 38.438 39.0333 38.354 39.012C38.27 38.9907 38.1973 38.9573 38.136 38.912C38.0747 38.8667 38.026 38.8073 37.99 38.734C37.954 38.6607 37.936 38.572 37.936 38.468C37.936 38.3507 37.956 38.2547 37.996 38.18C38.036 38.1053 38.0887 38.0447 38.154 37.998C38.2193 37.9513 38.294 37.916 38.378 37.892C38.462 37.868 38.548 37.848 38.636 37.832C38.7293 37.8133 38.818 37.7993 38.902 37.79C38.986 37.7807 39.06 37.7673 39.124 37.75C39.188 37.7327 39.2387 37.7073 39.276 37.674C39.3133 37.6407 39.332 37.592 39.332 37.528C39.332 37.4533 39.318 37.3933 39.29 37.348C39.262 37.3027 39.226 37.268 39.182 37.244C39.138 37.22 39.0887 37.204 39.034 37.196C38.9793 37.188 38.9253 37.184 38.872 37.184C38.728 37.184 38.608 37.2113 38.512 37.266C38.416 37.3207 38.364 37.424 38.356 37.576L38.016 37.576C38.0213 37.448 38.048 37.34 38.096 37.252C38.144 37.164 38.208 37.0927 38.288 37.038C38.368 36.9833 38.4593 36.944 38.562 36.92C38.6647 36.896 38.7747 36.884 38.892 36.884C38.9853 36.884 39.078 36.8907 39.17 36.904C39.262 36.9173 39.3453 36.9447 39.42 36.986C39.4947 37.0273 39.5547 37.0853 39.6 37.16C39.6453 37.2347 39.668 37.332 39.668 37.452L39.668 38.516C39.668 38.596 39.6727 38.6547 39.682 38.692C39.6913 38.7293 39.7227 38.748 39.776 38.748C39.8053 38.748 39.84 38.7413 39.88 38.728L39.88 38.992ZM39.328 37.932C39.2853 37.964 39.2293 37.9873 39.16 38.002C39.0907 38.0167 39.018 38.0287 38.942 38.038C38.866 38.0473 38.7893 38.058 38.712 38.07C38.6347 38.082 38.5653 38.1013 38.504 38.128C38.4427 38.1547 38.3927 38.1927 38.354 38.242C38.3153 38.2913 38.296 38.3587 38.296 38.444C38.296 38.5 38.3073 38.5473 38.33 38.586C38.3527 38.6247 38.382 38.656 38.418 38.68C38.454 38.704 38.496 38.7213 38.544 38.732C38.592 38.7427 38.6427 38.748 38.696 38.748C38.808 38.748 38.904 38.7327 38.984 38.702C39.064 38.6713 39.1293 38.6327 39.18 38.586C39.2307 38.5393 39.268 38.4887 39.292 38.434C39.316 38.3793 39.328 38.328 39.328 38.28L39.328 37.932Z"/>
<path d="M40.196 36.932L40.196 39L40.536 39L40.536 37.832C40.536 37.7387 40.5487 37.6527 40.574 37.574C40.5993 37.4953 40.6373 37.4267 40.688 37.368C40.7387 37.3093 40.802 37.264 40.878 37.232C40.954 37.2 41.044 37.184 41.148 37.184C41.2787 37.184 41.3813 37.2213 41.456 37.296C41.5307 37.3707 41.568 37.472 41.568 37.6L41.568 39L41.908 39L41.908 37.64C41.908 37.528 41.8967 37.426 41.874 37.334C41.8513 37.242 41.812 37.1627 41.756 37.096C41.7 37.0293 41.6267 36.9773 41.536 36.94C41.4453 36.9027 41.332 36.884 41.196 36.884C40.8893 36.884 40.6653 37.0093 40.524 37.26L40.516 37.26L40.516 36.932L40.196 36.932Z"/>
<path d="M42.892 36.932L42.892 36.312L42.552 36.312L42.552 36.932L42.2 36.932L42.2 37.232L42.552 37.232L42.552 38.548C42.552 38.644 42.5613 38.7213 42.58 38.78C42.5987 38.8387 42.6273 38.884 42.666 38.916C42.7047 38.948 42.7553 38.97 42.818 38.982C42.8807 38.994 42.956 39 43.044 39L43.304 39L43.304 38.7L43.148 38.7C43.0947 38.7 43.0513 38.698 43.018 38.694C42.9847 38.69 42.9587 38.6813 42.94 38.668C42.9213 38.6547 42.9087 38.636 42.902 38.612C42.8953 38.588 42.892 38.556 42.892 38.516L42.892 37.232L43.304 37.232L43.304 36.932L42.892 36.932Z"/>
<path d="M43.928 37.968C43.928 37.8427 43.9447 37.7313 43.978 37.634C44.0113 37.5367 44.0573 37.4547 44.116 37.388C44.1747 37.3213 44.2433 37.2707 44.322 37.236C44.4007 37.2013 44.484 37.184 44.572 37.184C44.66 37.184 44.7433 37.2013 44.822 37.236C44.9007 37.2707 44.9693 37.3213 45.028 37.388C45.0867 37.4547 45.1327 37.5367 45.166 37.634C45.1993 37.7313 45.216 37.8427 45.216 37.968C45.216 38.0933 45.1993 38.2047 45.166 38.302C45.1327 38.3993 45.0867 38.4807 45.028 38.546C44.9693 38.6113 44.9007 38.6613 44.822 38.696C44.7433 38.7307 44.66 38.748 44.572 38.748C44.484 38.748 44.4007 38.7307 44.322 38.696C44.2433 38.6613 44.1747 38.6113 44.116 38.546C44.0573 38.4807 44.0113 38.3993 43.978 38.302C43.9447 38.2047 43.928 38.0933 43.928 37.968ZM43.568 37.968C43.568 38.12 43.5893 38.2613 43.632 38.392C43.6747 38.5227 43.7387 38.6367 43.824 38.734C43.9093 38.8313 44.0147 38.9073 44.14 38.962C44.2653 39.0167 44.4093 39.044 44.572 39.044C44.7373 39.044 44.882 39.0167 45.006 38.962C45.13 38.9073 45.2347 38.8313 45.32 38.734C45.4053 38.6367 45.4693 38.5227 45.512 38.392C45.5547 38.2613 45.576 38.12 45.576 37.968C45.576 37.816 45.5547 37.674 45.512 37.542C45.4693 37.41 45.4053 37.2953 45.32 37.198C45.2347 37.1007 45.13 37.024 45.006 36.968C44.882 36.912 44.7373 36.884 44.572 36.884C44.4093 36.884 44.2653 36.912 44.14 36.968C44.0147 37.024 43.9093 37.1007 43.824 37.198C43.7387 37.2953 43.6747 37.41 43.632 37.542C43.5893 37.674 43.568 37.816 43.568 37.968Z"/>
</g>
<g fill="#000000" opacity="1" stroke="none" vectornator:layerName="text">
<path d="M1.896 42.232L1.896 44L2.236 44L2.236 42.232L2.636 42.232L2.636 41.932L2.236 41.932L2.236 41.644C2.236 41.5533 2.25867 41.492 2.304 41.46C2.34933 41.428 2.41333 41.412 2.496 41.412C2.52533 41.412 2.55733 41.414 2.592 41.418C2.62667 41.422 2.65867 41.4293 2.688 41.44L2.688 41.144C2.656 41.1333 2.61933 41.1253 2.578 41.12C2.53667 41.1147 2.5 41.112 2.468 41.112C2.28133 41.112 2.13933 41.1553 2.042 41.242C1.94467 41.3287 1.896 41.456 1.896 41.624L1.896 41.932L1.548 41.932L1.548 42.232L1.896 42.232Z"/>
<path d="M2.928 41.932L2.928 44L3.268 44L3.268 43.08C3.268 42.9467 3.28133 42.8287 3.308 42.726C3.33467 42.6233 3.37733 42.536 3.436 42.464C3.49467 42.392 3.572 42.3373 3.668 42.3C3.764 42.2627 3.88 42.244 4.016 42.244L4.016 41.884C3.832 41.8787 3.68 41.916 3.56 41.996C3.44 42.076 3.33867 42.2 3.256 42.368L3.248 42.368L3.248 41.932L2.928 41.932Z"/>
<path d="M4.448 42.968C4.448 42.8427 4.46467 42.7313 4.498 42.634C4.53133 42.5367 4.57733 42.4547 4.636 42.388C4.69467 42.3213 4.76333 42.2707 4.842 42.236C4.92067 42.2013 5.004 42.184 5.092 42.184C5.18 42.184 5.26333 42.2013 5.342 42.236C5.42067 42.2707 5.48933 42.3213 5.548 42.388C5.60667 42.4547 5.65267 42.5367 5.686 42.634C5.71933 42.7313 5.736 42.8427 5.736 42.968C5.736 43.0933 5.71933 43.2047 5.686 43.302C5.65267 43.3993 5.60667 43.4807 5.548 43.546C5.48933 43.6113 5.42067 43.6613 5.342 43.696C5.26333 43.7307 5.18 43.748 5.092 43.748C5.004 43.748 4.92067 43.7307 4.842 43.696C4.76333 43.6613 4.69467 43.6113 4.636 43.546C4.57733 43.4807 4.53133 43.3993 4.498 43.302C4.46467 43.2047 4.448 43.0933 4.448 42.968ZM4.088 42.968C4.088 43.12 4.10933 43.2613 4.152 43.392C4.19467 43.5227 4.25867 43.6367 4.344 43.734C4.42933 43.8313 4.53467 43.9073 4.66 43.962C4.78533 44.0167 4.92933 44.044 5.092 44.044C5.25733 44.044 5.402 44.0167 5.526 43.962C5.65 43.9073 5.75467 43.8313 5.84 43.734C5.92533 43.6367 5.98933 43.5227 6.032 43.392C6.07467 43.2613 6.096 43.12 6.096 42.968C6.096 42.816 6.07467 42.674 6.032 42.542C5.98933 42.41 5.92533 42.2953 5.84 42.198C5.75467 42.1007 5.65 42.024 5.526 41.968C5.402 41.912 5.25733 41.884 5.092 41.884C4.92933 41.884 4.78533 41.912 4.66 41.968C4.53467 42.024 4.42933 42.1007 4.344 42.198C4.25867 42.2953 4.19467 42.41 4.152 42.542C4.10933 42.674 4.088 42.816 4.088 42.968Z"/>
<path d="M6.496 41.932L6.496 44L6.836 44L6.836 42.712C6.836 42.672 6.846 42.622 6.866 42.562C6.886 42.502 6.918 42.444 6.962 42.388C7.006 42.332 7.06333 42.284 7.134 42.244C7.20467 42.204 7.28933 42.184 7.388 42.184C7.46533 42.184 7.52867 42.1953 7.578 42.218C7.62733 42.2407 7.66667 42.2727 7.696 42.314C7.72533 42.3553 7.746 42.404 7.758 42.46C7.77 42.516 7.776 42.5773 7.776 42.644L7.776 44L8.116 44L8.116 42.712C8.116 42.552 8.164 42.424 8.26 42.328C8.356 42.232 8.488 42.184 8.656 42.184C8.73867 42.184 8.806 42.196 8.858 42.22C8.91 42.244 8.95067 42.2767 8.98 42.318C9.00933 42.3593 9.02933 42.408 9.04 42.464C9.05067 42.52 9.056 42.58 9.056 42.644L9.056 44L9.396 44L9.396 42.484C9.396 42.3773 9.37933 42.286 9.346 42.21C9.31267 42.134 9.266 42.072 9.206 42.024C9.146 41.976 9.074 41.9407 8.99 41.918C8.906 41.8953 8.812 41.884 8.708 41.884C8.572 41.884 8.44733 41.9147 8.334 41.976C8.22067 42.0373 8.12933 42.124 8.06 42.236C8.01733 42.108 7.944 42.0173 7.84 41.964C7.736 41.9107 7.62 41.884 7.492 41.884C7.20133 41.884 6.97867 42.0013 6.824 42.236L6.816 42.236L6.816 41.932L6.496 41.932Z"/>
<path d="M11.492 41.932L11.492 41.312L11.152 41.312L11.152 41.932L10.8 41.932L10.8 42.232L11.152 42.232L11.152 43.548C11.152 43.644 11.1613 43.7213 11.18 43.78C11.1987 43.8387 11.2273 43.884 11.266 43.916C11.3047 43.948 11.3553 43.97 11.418 43.982C11.4807 43.994 11.556 44 11.644 44L11.904 44L11.904 43.7L11.748 43.7C11.6947 43.7 11.6513 43.698 11.618 43.694C11.5847 43.69 11.5587 43.6813 11.54 43.668C11.5213 43.6547 11.5087 43.636 11.502 43.612C11.4953 43.588 11.492 43.556 11.492 43.516L11.492 42.232L11.904 42.232L11.904 41.932L11.492 41.932Z"/>
<path d="M12.28 41.144L12.28 44L12.62 44L12.62 42.832C12.62 42.7387 12.6327 42.6527 12.658 42.574C12.6833 42.4953 12.7213 42.4267 12.772 42.368C12.8227 42.3093 12.886 42.264 12.962 42.232C13.038 42.2 13.128 42.184 13.232 42.184C13.3627 42.184 13.4653 42.2213 13.54 42.296C13.6147 42.3707 13.652 42.472 13.652 42.6L13.652 44L13.992 44L13.992 42.64C13.992 42.528 13.9807 42.426 13.958 42.334C13.9353 42.242 13.896 42.1627 13.84 42.096C13.784 42.0293 13.7107 41.9773 13.62 41.94C13.5293 41.9027 13.416 41.884 13.28 41.884C13.2187 41.884 13.1553 41.8907 13.09 41.904C13.0247 41.9173 12.962 41.938 12.902 41.966C12.842 41.994 12.788 42.03 12.74 42.074C12.692 42.118 12.6547 42.172 12.628 42.236L12.62 42.236L12.62 41.144L12.28 41.144Z"/>
<path d="M15.94 42.768L14.752 42.768C14.7573 42.688 14.7747 42.6127 14.804 42.542C14.8333 42.4713 14.8733 42.4093 14.924 42.356C14.9747 42.3027 15.0353 42.2607 15.106 42.23C15.1767 42.1993 15.256 42.184 15.344 42.184C15.4293 42.184 15.5073 42.1993 15.578 42.23C15.6487 42.2607 15.71 42.302 15.762 42.354C15.814 42.406 15.8553 42.468 15.886 42.54C15.9167 42.612 15.9347 42.688 15.94 42.768ZM16.268 43.344L15.932 43.344C15.9027 43.48 15.842 43.5813 15.75 43.648C15.658 43.7147 15.54 43.748 15.396 43.748C15.284 43.748 15.1867 43.7293 15.104 43.692C15.0213 43.6547 14.9533 43.6047 14.9 43.542C14.8467 43.4793 14.808 43.4073 14.784 43.326C14.76 43.2447 14.7493 43.1587 14.752 43.068L16.3 43.068C16.3053 42.9427 16.294 42.8107 16.266 42.672C16.238 42.5333 16.1873 42.4053 16.114 42.288C16.0407 42.1707 15.9433 42.074 15.822 41.998C15.7007 41.922 15.548 41.884 15.364 41.884C15.2227 41.884 15.0927 41.9107 14.974 41.964C14.8553 42.0173 14.7527 42.092 14.666 42.188C14.5793 42.284 14.512 42.3973 14.464 42.528C14.416 42.6587 14.392 42.8027 14.392 42.96C14.3973 43.1173 14.4207 43.2627 14.462 43.396C14.5033 43.5293 14.5653 43.644 14.648 43.74C14.7307 43.836 14.8327 43.9107 14.954 43.964C15.0753 44.0173 15.2187 44.044 15.384 44.044C15.6187 44.044 15.8133 43.9853 15.968 43.868C16.1227 43.7507 16.2227 43.576 16.268 43.344Z"/>
<path d="M17.816 41.144L17.816 44L18.176 44L18.176 41.708L18.184 41.708L19.676 44L20.092 44L20.092 41.144L19.732 41.144L19.732 43.46L19.724 43.46L18.22 41.144L17.816 41.144Z"/>
<path d="M20.9 42.968C20.9 42.8427 20.9167 42.7313 20.95 42.634C20.9833 42.5367 21.0293 42.4547 21.088 42.388C21.1467 42.3213 21.2153 42.2707 21.294 42.236C21.3727 42.2013 21.456 42.184 21.544 42.184C21.632 42.184 21.7153 42.2013 21.794 42.236C21.8727 42.2707 21.9413 42.3213 22 42.388C22.0587 42.4547 22.1047 42.5367 22.138 42.634C22.1713 42.7313 22.188 42.8427 22.188 42.968C22.188 43.0933 22.1713 43.2047 22.138 43.302C22.1047 43.3993 22.0587 43.4807 22 43.546C21.9413 43.6113 21.8727 43.6613 21.794 43.696C21.7153 43.7307 21.632 43.748 21.544 43.748C21.456 43.748 21.3727 43.7307 21.294 43.696C21.2153 43.6613 21.1467 43.6113 21.088 43.546C21.0293 43.4807 20.9833 43.3993 20.95 43.302C20.9167 43.2047 20.9 43.0933 20.9 42.968ZM20.54 42.968C20.54 43.12 20.5613 43.2613 20.604 43.392C20.6467 43.5227 20.7107 43.6367 20.796 43.734C20.8813 43.8313 20.9867 43.9073 21.112 43.962C21.2373 44.0167 21.3813 44.044 21.544 44.044C21.7093 44.044 21.854 44.0167 21.978 43.962C22.102 43.9073 22.2067 43.8313 22.292 43.734C22.3773 43.6367 22.4413 43.5227 22.484 43.392C22.5267 43.2613 22.548 43.12 22.548 42.968C22.548 42.816 22.5267 42.674 22.484 42.542C22.4413 42.41 22.3773 42.2953 22.292 42.198C22.2067 42.1007 22.102 42.024 21.978 41.968C21.854 41.912 21.7093 41.884 21.544 41.884C21.3813 41.884 21.2373 41.912 21.112 41.968C20.9867 42.024 20.8813 42.1007 20.796 42.198C20.7107 42.2953 20.6467 42.41 20.604 42.542C20.5613 42.674 20.54 42.816 20.54 42.968Z"/>
<path d="M24.66 44L24.66 41.932L24.32 41.932L24.32 43.1C24.32 43.1933 24.3073 43.2793 24.282 43.358C24.2567 43.4367 24.2187 43.5053 24.168 43.564C24.1173 43.6227 24.054 43.668 23.978 43.7C23.902 43.732 23.812 43.748 23.708 43.748C23.5773 43.748 23.4747 43.7107 23.4 43.636C23.3253 43.5613 23.288 43.46 23.288 43.332L23.288 41.932L22.948 41.932L22.948 43.292C22.948 43.404 22.9593 43.506 22.982 43.598C23.0047 43.69 23.044 43.7693 23.1 43.836C23.156 43.9027 23.2293 43.954 23.32 43.99C23.4107 44.026 23.524 44.044 23.66 44.044C23.812 44.044 23.944 44.014 24.056 43.954C24.168 43.894 24.26 43.8 24.332 43.672L24.34 43.672L24.34 44L24.66 44Z"/>
<path d="M25.172 41.932L25.172 44L25.512 44L25.512 42.832C25.512 42.7387 25.5247 42.6527 25.55 42.574C25.5753 42.4953 25.6133 42.4267 25.664 42.368C25.7147 42.3093 25.778 42.264 25.854 42.232C25.93 42.2 26.02 42.184 26.124 42.184C26.2547 42.184 26.3573 42.2213 26.432 42.296C26.5067 42.3707 26.544 42.472 26.544 42.6L26.544 44L26.884 44L26.884 42.64C26.884 42.528 26.8727 42.426 26.85 42.334C26.8273 42.242 26.788 42.1627 26.732 42.096C26.676 42.0293 26.6027 41.9773 26.512 41.94C26.4213 41.9027 26.308 41.884 26.172 41.884C25.8653 41.884 25.6413 42.0093 25.5 42.26L25.492 42.26L25.492 41.932L25.172 41.932Z"/>
<path d="M28.944 42.512L28.944 41.464L29.688 41.464C29.904 41.464 30.062 41.5087 30.162 41.598C30.262 41.6873 30.312 41.8173 30.312 41.988C30.312 42.1587 30.262 42.2893 30.162 42.38C30.062 42.4707 29.904 42.5147 29.688 42.512L28.944 42.512ZM28.564 41.144L28.564 44L28.944 44L28.944 42.832L29.816 42.832C30.104 42.8347 30.322 42.7613 30.47 42.612C30.618 42.4627 30.692 42.2547 30.692 41.988C30.692 41.7213 30.618 41.514 30.47 41.366C30.322 41.218 30.104 41.144 29.816 41.144L28.564 41.144Z"/>
<path d="M31.088 41.932L31.088 44L31.428 44L31.428 43.08C31.428 42.9467 31.4413 42.8287 31.468 42.726C31.4947 42.6233 31.5373 42.536 31.596 42.464C31.6547 42.392 31.732 42.3373 31.828 42.3C31.924 42.2627 32.04 42.244 32.176 42.244L32.176 41.884C31.992 41.8787 31.84 41.916 31.72 41.996C31.6 42.076 31.4987 42.2 31.416 42.368L31.408 42.368L31.408 41.932L31.088 41.932Z"/>
<path d="M32.608 42.968C32.608 42.8427 32.6247 42.7313 32.658 42.634C32.6913 42.5367 32.7373 42.4547 32.796 42.388C32.8547 42.3213 32.9233 42.2707 33.002 42.236C33.0807 42.2013 33.164 42.184 33.252 42.184C33.34 42.184 33.4233 42.2013 33.502 42.236C33.5807 42.2707 33.6493 42.3213 33.708 42.388C33.7667 42.4547 33.8127 42.5367 33.846 42.634C33.8793 42.7313 33.896 42.8427 33.896 42.968C33.896 43.0933 33.8793 43.2047 33.846 43.302C33.8127 43.3993 33.7667 43.4807 33.708 43.546C33.6493 43.6113 33.5807 43.6613 33.502 43.696C33.4233 43.7307 33.34 43.748 33.252 43.748C33.164 43.748 33.0807 43.7307 33.002 43.696C32.9233 43.6613 32.8547 43.6113 32.796 43.546C32.7373 43.4807 32.6913 43.3993 32.658 43.302C32.6247 43.2047 32.608 43.0933 32.608 42.968ZM32.248 42.968C32.248 43.12 32.2693 43.2613 32.312 43.392C32.3547 43.5227 32.4187 43.6367 32.504 43.734C32.5893 43.8313 32.6947 43.9073 32.82 43.962C32.9453 44.0167 33.0893 44.044 33.252 44.044C33.4173 44.044 33.562 44.0167 33.686 43.962C33.81 43.9073 33.9147 43.8313 34 43.734C34.0853 43.6367 34.1493 43.5227 34.192 43.392C34.2347 43.2613 34.256 43.12 34.256 42.968C34.256 42.816 34.2347 42.674 34.192 42.542C34.1493 42.41 34.0853 42.2953 34 42.198C33.9147 42.1007 33.81 42.024 33.686 41.968C33.562 41.912 33.4173 41.884 33.252 41.884C33.0893 41.884 32.9453 41.912 32.82 41.968C32.6947 42.024 32.5893 42.1007 32.504 42.198C32.4187 42.2953 32.3547 42.41 32.312 42.542C32.2693 42.674 32.248 42.816 32.248 42.968Z"/>
<path d="M35.016 41.56L35.016 41.144L34.676 41.144L34.676 41.56L35.016 41.56ZM35.016 44.26L35.016 41.932L34.676 41.932L34.676 44.204C34.676 44.3107 34.6627 44.3847 34.636 44.426C34.6093 44.4673 34.5587 44.488 34.484 44.488L34.412 44.488C34.4013 44.488 34.3913 44.4873 34.382 44.486C34.3727 44.4847 34.3613 44.4827 34.348 44.48L34.348 44.772C34.4013 44.7827 34.4587 44.788 34.52 44.788C34.672 44.788 34.7927 44.746 34.882 44.662C34.9713 44.578 35.016 44.444 35.016 44.26Z"/>
<path d="M36.98 42.768L35.792 42.768C35.7973 42.688 35.8147 42.6127 35.844 42.542C35.8733 42.4713 35.9133 42.4093 35.964 42.356C36.0147 42.3027 36.0753 42.2607 36.146 42.23C36.2167 42.1993 36.296 42.184 36.384 42.184C36.4693 42.184 36.5473 42.1993 36.618 42.23C36.6887 42.2607 36.75 42.302 36.802 42.354C36.854 42.406 36.8953 42.468 36.926 42.54C36.9567 42.612 36.9747 42.688 36.98 42.768ZM37.308 43.344L36.972 43.344C36.9427 43.48 36.882 43.5813 36.79 43.648C36.698 43.7147 36.58 43.748 36.436 43.748C36.324 43.748 36.2267 43.7293 36.144 43.692C36.0613 43.6547 35.9933 43.6047 35.94 43.542C35.8867 43.4793 35.848 43.4073 35.824 43.326C35.8 43.2447 35.7893 43.1587 35.792 43.068L37.34 43.068C37.3453 42.9427 37.334 42.8107 37.306 42.672C37.278 42.5333 37.2273 42.4053 37.154 42.288C37.0807 42.1707 36.9833 42.074 36.862 41.998C36.7407 41.922 36.588 41.884 36.404 41.884C36.2627 41.884 36.1327 41.9107 36.014 41.964C35.8953 42.0173 35.7927 42.092 35.706 42.188C35.6193 42.284 35.552 42.3973 35.504 42.528C35.456 42.6587 35.432 42.8027 35.432 42.96C35.4373 43.1173 35.4607 43.2627 35.502 43.396C35.5433 43.5293 35.6053 43.644 35.688 43.74C35.7707 43.836 35.8727 43.9107 35.994 43.964C36.1153 44.0173 36.2587 44.044 36.424 44.044C36.6587 44.044 36.8533 43.9853 37.008 43.868C37.1627 43.7507 37.2627 43.576 37.308 43.344Z"/>
<path d="M39.096 42.596L39.448 42.596C39.4347 42.4733 39.4027 42.3673 39.352 42.278C39.3013 42.1887 39.2367 42.1147 39.158 42.056C39.0793 41.9973 38.9887 41.954 38.886 41.926C38.7833 41.898 38.6733 41.884 38.556 41.884C38.3933 41.884 38.2507 41.9127 38.128 41.97C38.0053 42.0273 37.9033 42.106 37.822 42.206C37.7407 42.306 37.68 42.4233 37.64 42.558C37.6 42.6927 37.58 42.8373 37.58 42.992C37.58 43.1467 37.6007 43.2887 37.642 43.418C37.6833 43.5473 37.7447 43.6587 37.826 43.752C37.9073 43.8453 38.0087 43.9173 38.13 43.968C38.2513 44.0187 38.3907 44.044 38.548 44.044C38.812 44.044 39.0207 43.9747 39.174 43.836C39.3273 43.6973 39.4227 43.5 39.46 43.244L39.112 43.244C39.0907 43.404 39.0327 43.528 38.938 43.616C38.8433 43.704 38.712 43.748 38.544 43.748C38.4373 43.748 38.3453 43.7267 38.268 43.684C38.1907 43.6413 38.128 43.5847 38.08 43.514C38.032 43.4433 37.9967 43.3627 37.974 43.272C37.9513 43.1813 37.94 43.088 37.94 42.992C37.94 42.888 37.9507 42.7873 37.972 42.69C37.9933 42.5927 38.0287 42.5067 38.078 42.432C38.1273 42.3573 38.1933 42.2973 38.276 42.252C38.3587 42.2067 38.4613 42.184 38.584 42.184C38.728 42.184 38.8427 42.22 38.928 42.292C39.0133 42.364 39.0693 42.4653 39.096 42.596Z"/>
<path d="M40.312 41.932L40.312 41.312L39.972 41.312L39.972 41.932L39.62 41.932L39.62 42.232L39.972 42.232L39.972 43.548C39.972 43.644 39.9813 43.7213 40 43.78C40.0187 43.8387 40.0473 43.884 40.086 43.916C40.1247 43.948 40.1753 43.97 40.238 43.982C40.3007 43.994 40.376 44 40.464 44L40.724 44L40.724 43.7L40.568 43.7C40.5147 43.7 40.4713 43.698 40.438 43.694C40.4047 43.69 40.3787 43.6813 40.36 43.668C40.3413 43.6547 40.3287 43.636 40.322 43.612C40.3153 43.588 40.312 43.556 40.312 43.516L40.312 42.232L40.724 42.232L40.724 41.932L40.312 41.932Z"/>
</g>
</g>
</svg>
