<svg xmlns="http://www.w3.org/2000/svg" viewBox="0 0 24 30" x="0px" y="0px"><title>camera, photo, photo camera, photography, photo cameras, cameras, tools, interface</title><g data-name="Layer 2"><path d="M20,6.25H16.54l-.6-1.8a1.75,1.75,0,0,0-1.66-1.2H9.72a1.75,1.75,0,0,0-1.66,1.2l-.6,1.8H4A1.76,1.76,0,0,0,2.25,8V19A1.76,1.76,0,0,0,4,20.75H20A1.76,1.76,0,0,0,21.75,19V8A1.76,1.76,0,0,0,20,6.25ZM20.25,19a.25.25,0,0,1-.25.25H4A.25.25,0,0,1,3.75,19V8A.25.25,0,0,1,4,7.75H8a.75.75,0,0,0,.71-.51l.77-2.32a.26.26,0,0,1,.24-.17h4.56a.26.26,0,0,1,.24.17l.77,2.32a.75.75,0,0,0,.71.51h4a.25.25,0,0,1,.25.25ZM12,8.25A4.75,4.75,0,1,0,16.75,13,4.75,4.75,0,0,0,12,8.25Zm0,8A3.25,3.25,0,1,1,15.25,13,3.26,3.26,0,0,1,12,16.25Z"/></g><text x="0" y="39" fill="#000000" font-size="5px" font-weight="bold" font-family="'Helvetica Neue', Helvetica, Arial-Unicode, Arial, Sans-serif">Created by Dwi ridwanto</text><text x="0" y="44" fill="#000000" font-size="5px" font-weight="bold" font-family="'Helvetica Neue', Helvetica, Arial-Unicode, Arial, Sans-serif">from the Noun Project</text></svg>