<?xml version="1.0" encoding="UTF-8" standalone="no"?>
<!DOCTYPE svg PUBLIC "-//W3C//DTD SVG 1.1//EN" "http://www.w3.org/Graphics/SVG/1.1/DTD/svg11.dtd">
<!-- Created with Vectornator (http://vectornator.io/) -->
<svg height="100%" stroke-miterlimit="10" style="fill-rule:nonzero;clip-rule:evenodd;stroke-linecap:round;stroke-linejoin:round;" version="1.1" viewBox="0 0 100 125" width="100%" xml:space="preserve" xmlns="http://www.w3.org/2000/svg" xmlns:xlink="http://www.w3.org/1999/xlink">
<defs/>
<g id="Sans-titre">
<g opacity="1">
<path d="M97.1375 61.6L86.2375 53.2C85.4375 52.6 84.3375 53.2 84.3375 54.1L84.3375 58.6L72.3375 58.6C71.7375 58.6 71.2375 59.1 71.2375 59.7L71.2375 65.2C71.2375 65.8 71.7375 66.3 72.3375 66.3L84.3375 66.3L84.3375 70.8C84.3375 71.8 85.4375 72.3 86.2375 71.7L97.1375 63.3C97.6375 62.9 97.6375 62.1 97.1375 61.6Z" fill="#000000" fill-rule="nonzero" opacity="1" stroke="none"/>
<path d="M28.9375 65.3L28.9375 59.8C28.9375 59.2 28.4375 58.7 27.8375 58.7L15.8375 58.7L15.8375 54.2C15.8375 53.2 14.7375 52.7 13.9375 53.3L2.9375 61.6C2.3375 62.1 2.3375 63 2.9375 63.4L13.8375 71.8C14.6375 72.4 15.7375 71.8 15.7375 70.9L15.7375 66.4L27.7375 66.4C28.3375 66.4 28.9375 65.9 28.9375 65.3Z" fill="#000000" fill-rule="nonzero" opacity="1" stroke="none"/>
<path d="M66.9375 49.5C67.3375 50 68.1375 50 68.5375 49.5L77.0375 41L80.2375 44.2C80.9375 44.9 82.0375 44.5 82.2375 43.5L83.9375 29.9C84.0375 29.2 83.4375 28.5 82.6375 28.6L69.0375 30.3C68.1375 30.4 67.7375 31.6 68.3375 32.3L71.5375 35.5L63.0375 44C62.6375 44.5 62.6375 45.2 63.0375 45.6L66.9375 49.5Z" fill="#000000" fill-rule="nonzero" opacity="1" stroke="none"/>
<path d="M33.1375 75.5C32.7375 75.1 31.9375 75.1 31.5375 75.5L23.0375 84L19.8375 80.8C19.1375 80.1 18.0375 80.5 17.8375 81.5L16.1375 95.1C16.0375 95.8 16.6375 96.5 17.4375 96.4L31.0375 94.7C31.9375 94.6 32.3375 93.4 31.7375 92.7L28.5375 89.5L37.0375 81C37.4375 80.6 37.4375 79.8 37.0375 79.4L33.1375 75.5Z" fill="#000000" fill-rule="nonzero" opacity="1" stroke="none"/>
<path d="M50.9375 15.4C50.4375 14.8 49.5375 14.8 49.1375 15.4L40.7375 26.3C40.1375 27.1 40.7375 28.2 41.6375 28.2L46.1375 28.2L46.1375 40.2C46.1375 40.8 46.6375 41.3 47.2375 41.3L52.7375 41.3C53.3375 41.3 53.8375 40.8 53.8375 40.2L53.8375 28.2L58.3375 28.2C59.3375 28.2 59.8375 27.1 59.2375 26.3L50.9375 15.4Z" fill="#000000" fill-rule="nonzero" opacity="1" stroke="none"/>
<path d="M58.4375 96.8L53.9375 96.8L53.9375 84.8C53.9375 84.2 53.4375 83.7 52.8375 83.7L47.3375 83.7C46.7375 83.7 46.2375 84.2 46.2375 84.8L46.2375 96.8L41.7375 96.8C40.7375 96.8 40.2375 97.9 40.8375 98.7L49.2375 109.6C49.7375 110.2 50.6375 110.2 51.0375 109.6L59.4375 98.7C59.9375 97.9 59.4375 96.8 58.4375 96.8Z" fill="#000000" fill-rule="nonzero" opacity="1" stroke="none"/>
<path d="M19.8375 44.2L23.0375 41L31.5375 49.5C31.9375 49.9 32.7375 49.9 33.1375 49.5L37.0375 45.6C37.4375 45.1 37.4375 44.4 37.0375 44L28.5375 35.5L31.7375 32.3C32.4375 31.6 32.0375 30.5 31.0375 30.3L17.4375 28.6C16.7375 28.5 16.0375 29.1 16.1375 29.9L17.8375 43.5C17.9375 44.4 19.1375 44.8 19.8375 44.2Z" fill="#000000" fill-rule="nonzero" opacity="1" stroke="none"/>
<path d="M80.2375 80.8L77.0375 84L68.5375 75.5C68.1375 75.1 67.3375 75.1 66.9375 75.5L63.0375 79.4C62.5375 79.8 62.5375 80.6 63.0375 81L71.5375 89.5L68.3375 92.7C67.6375 93.4 68.0375 94.5 69.0375 94.7L82.6375 96.4C83.3375 96.5 84.0375 95.9 83.9375 95.1L82.2375 81.5C82.1375 80.6 80.9375 80.2 80.2375 80.8Z" fill="#000000" fill-rule="nonzero" opacity="1" stroke="none"/>
<path d="M40.6375 62.5C40.6375 57.3085 44.846 53.1 50.0375 53.1C55.229 53.1 59.4375 57.3085 59.4375 62.5C59.4375 67.6915 55.229 71.9 50.0375 71.9C44.846 71.9 40.6375 67.6915 40.6375 62.5Z" fill="#000000" fill-rule="nonzero" opacity="1" stroke="none"/>
</g>
</g>
</svg>
