<?xml version="1.0" encoding="UTF-8" standalone="no"?>
<!DOCTYPE svg PUBLIC "-//W3C//DTD SVG 1.1//EN" "http://www.w3.org/Graphics/SVG/1.1/DTD/svg11.dtd">
<!-- Created with Vectornator (http://vectornator.io/) -->
<svg height="100%" stroke-miterlimit="10" style="fill-rule:nonzero;clip-rule:evenodd;stroke-linecap:round;stroke-linejoin:round;" version="1.1" viewBox="0 0 30.8495 29.3661" width="100%" xml:space="preserve" xmlns="http://www.w3.org/2000/svg" xmlns:xlink="http://www.w3.org/1999/xlink">
<defs/>
<g id="Calque-1"/>
<g id="Sans-titre">
<g opacity="1">
<g fill="#000000" opacity="1" stroke="none">
<path d="M4.43262 25.8711L5.59863 25.8711L5.60156 22.3555L6.48047 22.3555L6.48047 26.1641C6.48047 26.5547 6.28516 26.75 5.89453 26.75L2.08594 26.75C1.69531 26.75 1.5 26.5547 1.5 26.1641L1.5 22.3555L2.37891 22.3555L2.37891 25.8711L3.55371 25.8711L3.55371 22.3555L4.43262 22.3555L4.43262 25.8711Z"/>
<path d="M7.94531 24.9922L7.94531 25.8711L9.99609 25.8711L9.99609 26.75L7.65234 26.75C7.26172 26.75 7.06641 26.5547 7.06641 26.1641L7.06641 22.9414C7.06641 22.5508 7.26172 22.3555 7.65234 22.3555L9.99609 22.3555L9.99609 23.2344L7.94531 23.2344L7.94531 24.1133L9.11719 24.1133L8.82422 24.9922L7.94531 24.9922Z"/>
<path d="M12.9316 23.2344L11.4609 23.2344L11.4609 24.1104L12.9316 24.1104L12.9316 23.2344ZM13.2188 24.9951L11.4609 24.9951L11.4609 25.8711L13.2188 25.8711L13.2188 24.9951ZM13.8105 24.6055C14.002 24.6875 14.0977 24.8652 14.0977 25.1387L14.0977 26.1641C14.0977 26.5547 13.9023 26.75 13.5117 26.75L10.582 26.75L10.582 22.3555L13.2246 22.3555C13.6152 22.3555 13.8105 22.5508 13.8105 22.9414L13.8105 24.6055Z"/>
<path d="M19.5527 24.9922L20.2559 26.75L19.377 26.75L18.6416 24.9922L17.6133 24.9922L17.6133 26.75L16.7344 26.75L16.7344 22.9414C16.7344 22.5508 16.9297 22.3555 17.3203 22.3555L19.6641 22.3555C20.0547 22.3555 20.25 22.5508 20.25 22.9414L20.25 24.4062C20.25 24.7969 20.0547 24.9922 19.6641 24.9922L19.5527 24.9922ZM19.3711 24.1133L19.3711 23.2344L17.6133 23.2344L17.6133 24.1133L19.3711 24.1133Z"/>
<path d="M24.0586 22.3555L24.0586 23.2344L22.8867 23.2344L22.8867 26.75L22.0078 26.75L22.0078 23.2344L20.8359 23.2344L20.8359 22.3555L24.0586 22.3555Z"/>
<path d="M27.2812 23.2344L25.5234 23.2344L25.5234 25.8711L27.5742 25.8711L27.5742 26.75L25.2305 26.75C24.8398 26.75 24.6445 26.5547 24.6445 26.1641L24.6445 22.9414C24.6445 22.5508 24.8398 22.3555 25.2305 22.3555L27.5742 22.3555L27.2812 23.2344Z"/>
</g>
</g>
</g>
<g id="Layer-2">
<path d="M23 6.25L19.54 6.25L18.94 4.45C18.703 3.73413 18.0341 3.25057 17.28 3.25L12.72 3.25C11.9659 3.25057 11.297 3.73413 11.06 4.45L10.46 6.25L7 6.25C6.03577 6.25546 5.25546 7.03577 5.25 8L5.25 19C5.25546 19.9642 6.03577 20.7445 7 20.75L23 20.75C23.9642 20.7445 24.7445 19.9642 24.75 19L24.75 8C24.7445 7.03577 23.9642 6.25546 23 6.25ZM23.25 19C23.25 19.1381 23.1381 19.25 23 19.25L7 19.25C6.86193 19.25 6.75 19.1381 6.75 19L6.75 8C6.75 7.86193 6.86193 7.75 7 7.75L11 7.75C11.3215 7.74976 11.6071 7.54461 11.71 7.24L12.48 4.92C12.5172 4.81918 12.6126 4.75163 12.72 4.75L17.28 4.75C17.3874 4.75163 17.4828 4.81918 17.52 4.92L18.29 7.24C18.3929 7.54461 18.6785 7.74976 19 7.75L23 7.75C23.1381 7.75 23.25 7.86193 23.25 8L23.25 19ZM15 8.25C12.3766 8.25 10.25 10.3766 10.25 13C10.25 15.6234 12.3766 17.75 15 17.75C17.6234 17.75 19.75 15.6234 19.75 13C19.75 10.3766 17.6234 8.25 15 8.25ZM15 16.25C13.2051 16.25 11.75 14.7949 11.75 13C11.75 11.2051 13.2051 9.75 15 9.75C16.7949 9.75 18.25 11.2051 18.25 13C18.2445 14.7926 16.7926 16.2445 15 16.25Z" fill="#000000" fill-rule="nonzero" opacity="1" stroke="none"/>
</g>
</svg>
