<svg id="eE16NGZbe3m1" xmlns="http://www.w3.org/2000/svg" xmlns:xlink="http://www.w3.org/1999/xlink" viewBox="-135.084 -68.523 755.539 750.225" shape-rendering="geometricPrecision" text-rendering="geometricPrecision">
<style><![CDATA[
#eE16NGZbe3m2_to {animation: eE16NGZbe3m2_to__to 3000ms linear infinite normal forwards}@keyframes eE16NGZbe3m2_to__to { 0% {transform: translate(373.013px,32.466997px)} 16.666667% {transform: translate(355.16px,40.070997px)} 33.333333% {transform: translate(387.787866px,35.431936px)} 50% {transform: translate(356.796906px,30.016061px)} 66.666667% {transform: translate(375.988613px,47.469927px)} 83.333333% {transform: translate(373.013px,32.466997px)} 100% {transform: translate(355.16px,40.070997px)}} #eE16NGZbe3m3_to {animation: eE16NGZbe3m3_to__to 3000ms linear infinite normal forwards}@keyframes eE16NGZbe3m3_to__to { 0% {transform: translate(113.452003px,60.355999px)} 20% {transform: translate(99.429166px,56.742553px)} 40% {transform: translate(114.333518px,46.559774px)} 60% {transform: translate(128.842003px,55.716938px)} 76.666667% {transform: translate(114.792492px,72.611251px)} 93.333333% {transform: translate(102.724013px,59.446213px)} 100% {transform: translate(112.615143px,56.30338px)}} #eE16NGZbe3m4_to {animation: eE16NGZbe3m4_to__to 3000ms linear infinite normal forwards}@keyframes eE16NGZbe3m4_to__to { 0% {transform: translate(257.842018px,518.742004px)} 26.666667% {transform: translate(274.973712px,497.025178px)} 56.666667% {transform: translate(228.132552px,532.702821px)} 96.666667% {transform: translate(229.648114px,492.371573px)} 100% {transform: translate(232.338113px,496.120311px)}} #eE16NGZbe3m5_to {animation: eE16NGZbe3m5_to__to 3000ms linear infinite normal forwards}@keyframes eE16NGZbe3m5_to__to { 0% {transform: translate(14.608px,379.455002px)} 10% {transform: translate(26.532px,366.708002px)} 20% {transform: translate(6.102px,369.529858px)} 40% {transform: translate(6.102px,393.524002px)} 56.666667% {transform: translate(46.962px,387.138002px)} 76.666667% {transform: translate(38.456px,361.446002px)} 96.666667% {transform: translate(6.102px,361.446002px)} 100% {transform: translate(5.025242px,365.117562px)}} #eE16NGZbe3m10_tr {animation: eE16NGZbe3m10_tr__tr 3000ms linear infinite normal forwards}@keyframes eE16NGZbe3m10_tr__tr { 0% {transform: translate(211.925247px,393.4085px) rotate(0deg)} 20% {transform: translate(211.925247px,393.4085px) rotate(0deg);animation-timing-function: cubic-bezier(0.42,0,0.58,1)} 50% {transform: translate(211.925247px,393.4085px) rotate(12.93597deg);animation-timing-function: cubic-bezier(0.42,0,0.58,1)} 100% {transform: translate(211.925247px,393.4085px) rotate(12.93597deg)}} #eE16NGZbe3m14_tr {animation: eE16NGZbe3m14_tr__tr 3000ms linear infinite normal forwards}@keyframes eE16NGZbe3m14_tr__tr { 0% {transform: translate(143.517917px,236.939272px) rotate(-12.917595deg)} 56.666667% {transform: translate(143.517917px,236.939272px) rotate(-12.917595deg)} 100% {transform: translate(143.517917px,236.939272px) rotate(-21.980746deg)}} #eE16NGZbe3m32_to {animation: eE16NGZbe3m32_to__to 3000ms linear infinite normal forwards}@keyframes eE16NGZbe3m32_to__to { 0% {transform: translate(34.880592px,184.739697px)} 13.333333% {transform: translate(50.066066px,167.489797px)} 30% {transform: translate(0.485607px,173.873385px)} 46.666667% {transform: translate(50.066066px,203.677648px)} 63.333333% {transform: translate(6.183438px,205.664453px)} 80% {transform: translate(8.525781px,176.723591px)} 96.666667% {transform: translate(50.066066px,186.933844px)} 100% {transform: translate(39.095409px,190.734486px)}} #eE16NGZbe3m33_to {animation: eE16NGZbe3m33_to__to 3000ms linear infinite normal forwards}@keyframes eE16NGZbe3m33_to__to { 0% {transform: translate(439.192993px,356.644989px)} 13.333333% {transform: translate(452.409993px,334.276488px)} 30% {transform: translate(429.418665px,348.267488px)} 46.666667% {transform: translate(433.519058px,370.539589px)} 60% {transform: translate(460.557855px,365.81279px)} 73.333333% {transform: translate(431.665649px,351.736989px)} 83.333333% {transform: translate(439.192993px,356.644989px)} 96.666667% {transform: translate(452.409993px,334.276488px)} 100% {transform: translate(447.811727px,337.074688px)}}
]]></style>
<g id="eE16NGZbe3m2_to" transform="translate(373.013,32.466997)"><circle r="19.637" transform="translate(0,0.000003)" fill="#d0b468" fill-opacity="0.65"/></g><g id="eE16NGZbe3m3_to" transform="translate(113.452003,60.355999)"><circle r="20.285" transform="translate(-0.000003,0.000001)" fill="#9b2b2b" fill-opacity="0.65"/></g><g id="eE16NGZbe3m4_to" transform="translate(257.842018,518.742004)"><circle r="36.424" transform="translate(-0.000018,-0.000004)" fill="#e5c37a" fill-opacity="0.65"/></g><g id="eE16NGZbe3m5_to" transform="translate(14.608,379.455002)"><circle r="20.43" transform="translate(0,-0.000002)" fill="#6a9bd3" fill-opacity="0.65"/></g><path d="M200,200c0,69.035594,137.896297,125,308,125s308-55.964406,308-125-137.896297-125-308-125-308,55.964406-308,125Zm5,0c0-67.378739,135.657721-122,303-122s303,54.621261,303,122-135.657721,122-303,122-303-54.621261-303-122Z" transform="matrix(-.792484 0.609893-.609893-.792484 742.474976 129.414444)" fill="#d8d8d8"/><path d="M129.934,448.016h177.809c9.499298,0,17.2,7.678764,17.2,17.151v17.151h-212.209v-17.151c0-9.472236,7.700702-17.151,17.2-17.151Z" fill="#d8d8d8" stroke="#000" stroke-width="4" stroke-miterlimit="1"/><g><path d="M207.029,200c0,67.568725,134.749307,122.344,300.971,122.344s300.971-54.775275,300.971-122.344-134.749307-122.344-300.971-122.344-300.971,54.775275-300.971,122.344Zm4.886,0c0-65.946665,132.56177-119.407,296.085-119.407s296.085,53.460335,296.085,119.407-132.56177,119.407-296.085,119.407-296.085-53.460335-296.085-119.407Z" transform="matrix(-.519072-.85473 0.963486-.339989 321.265503 794.881531)" fill="#d8d8d8"/><g id="eE16NGZbe3m10_tr" transform="translate(211.925247,393.4085) rotate(0)"><g transform="translate(-211.925247,-393.4085)"><rect width="72.516" height="177.424" rx="0" ry="0" transform="matrix(1 0 0.348537 1 124.514752 234.831182)" fill="#d8d8d8" stroke="#000" stroke-width="4"/><line x1="193.54" y1="338.093" x2="180.494" y2="301.327" stroke="#000" stroke-width="2"/><line x1="175.75" y1="291.246" x2="170.413" y2="277.014" stroke="#000" stroke-width="2"/><g id="eE16NGZbe3m14_tr" transform="translate(143.517917,236.939272) rotate(-12.917595)"><g transform="translate(-143.517917,-236.939272)"><rect width="72.516" height="138.073" rx="0" ry="0" transform="matrix(.281872 0.959452-.861209 0.616277 243.293407 129.546579)" fill="#d8d8d8" stroke="#000" stroke-width="4"/><line x1="192.215" y1="208.778" x2="226.017" y2="186.837" stroke="#000" stroke-width="2"/><line x1="237.167" y1="180.431" x2="250.806" y2="171.536" stroke="#000" stroke-width="2"/><g transform="translate(.000001 0)"><path d="M311.175,157.393l50.897,8.122l57.937-34.112l18.41,16.244-56.854,62.268-58.478-13.537-11.912-38.985" fill="#d8d8d8" stroke="#000" stroke-width="4"/><path d="M294.216,103.102l39.731-50.998l82.428,13.639-2.965,24.906-71.754-6.523-37.359,54.557" fill="#d8d8d8" stroke="#000" stroke-width="4"/><g transform="translate(.000001 0)"><path d="M280.551,32.014h50.561v97.442h-50.561c-4.970563,0-9-4.029437-9-9v-79.442c0-4.970563,4.029437-9,9-9Z" transform="matrix(.957542-.288293 0.288293 0.957542-33.019943 168.468903)" fill="#efda7f" stroke="#000" stroke-width="4"/><line x1="270.858" y1="126.924" x2="266.656" y2="112.99" transform="matrix(.999633-.027072 0.027072 0.999633-3.148975 7.319761)" stroke="#000" stroke-width="2"/><line x1="293.363" y1="196.649" x2="287.613" y2="180.283" transform="matrix(.999747 0.022509-.022509 0.999747 4.315778-6.490844)" stroke="#000" stroke-width="2"/><line x1="283.019" y1="164.1" x2="276.383" y2="145.321" transform="matrix(.999568 0.029377-.029377 0.999568 4.665651-8.150007)" stroke="#000" stroke-width="2"/></g></g><g><circle r="59.712" transform="matrix(.868306 0 0 0.835383 145.015618 234.331026)" fill="#efda7f" stroke="#000" stroke-width="4"/><path d="M578.086,154.138c0,19.274738,15.637798,34.9,34.928,34.9s34.928-15.625262,34.928-34.9-15.637798-34.9-34.928-34.9-34.928,15.625262-34.928,34.9Zm1.609,0c0-18.391082,14.917424-33.3,33.319-33.3s33.319,14.908918,33.319,33.3-14.917424,33.3-33.319,33.3-33.319-14.908918-33.319-33.3Z" transform="matrix(.7313 0.682056-.682056 0.7313-197.909378-295.591248)" stroke="#86ae00" stroke-width="0" stroke-miterlimit="5"/><circle r="20.734" transform="translate(145.118 234.228)" fill="#d8d8d8" stroke="#000" stroke-width="4"/></g></g></g></g></g><path d="M190.953,341.016l43.501,1.304l37.869,103.481h-123.196Z" transform="translate(.000001 0)" fill="#efda7f" stroke="#000" stroke-width="4"/><circle r="26.816" transform="translate(210.885 393.524)" fill="#d8d8d8" stroke="#000" stroke-width="4"/></g><g id="eE16NGZbe3m32_to" transform="translate(34.880592,184.739697)"><circle r="32.354" transform="translate(0,0.000005)" fill="#8d7adf" fill-opacity="0.65"/></g><g id="eE16NGZbe3m33_to" transform="translate(439.192993,356.644989)"><circle r="13.991" transform="translate(0.000007,0.000011)" fill="#f44" fill-opacity="0.65"/></g></svg>
