<?xml version="1.0" encoding="UTF-8" standalone="no"?>
<!DOCTYPE svg PUBLIC "-//W3C//DTD SVG 1.1//EN" "http://www.w3.org/Graphics/SVG/1.1/DTD/svg11.dtd">
<!-- Created with Vectornator (http://vectornator.io/) -->
<svg height="100%" stroke-miterlimit="10" style="fill-rule:nonzero;clip-rule:evenodd;stroke-linecap:round;stroke-linejoin:round;" version="1.1" viewBox="0 0 100 125" width="100%" xml:space="preserve" xmlns="http://www.w3.org/2000/svg" xmlns:vectornator="http://vectornator.io" xmlns:xlink="http://www.w3.org/1999/xlink">
<defs/>
<g id="Sans-titre" vectornator:layerName="Sans titre">
<path d="M79.3 30.2C85.4 30.2 90.3 25.3 90.3 19.2C90.3 13.1 85.4 8.2 79.3 8.2C73.2 8.2 68.3 13.1 68.3 19.2C68.3 21.9 69.3 24.3 70.8 26.2L57.4 40.5C55.5 38.9 53 37.9 50.3 37.9C47.6 37.9 45.2 38.8 43.3 40.4L29.8 27.9C30.4 26.8 30.8 25.6 30.8 24.2C30.8 20.2 27.5 16.9 23.5 16.9C19.5 16.9 16.2 20.2 16.2 24.2C16.2 28.2 19.5 31.5 23.5 31.5C25.1 31.5 26.6 30.9 27.9 30L41.4 42.5C40.1 44.3 39.4 46.5 39.4 48.8C39.4 51.4 40.3 53.8 41.8 55.7L26.9 71.5C25.1 70.2 22.9 69.4 20.5 69.4C14.4 69.4 9.5 74.3 9.5 80.4C9.5 86.5 14.4 91.4 20.5 91.4C26.6 91.4 31.5 86.5 31.5 80.4C31.5 77.8 30.6 75.4 29.1 73.5L43.9 57.8C45.6 59.1 47.8 59.8 50.1 59.9L52 77.1C48.3 78.2 45.6 81.5 45.6 85.5C45.6 90.4 49.5 94.3 54.4 94.3C59.3 94.3 63.2 90.4 63.2 85.5C63.2 80.8 59.5 77 54.9 76.7L53 59.6C55 59.1 56.9 58 58.3 56.5L72 66.4C71.6 67.3 71.3 68.3 71.3 69.4C71.3 73.4 74.6 76.7 78.6 76.7C82.6 76.7 85.9 73.4 85.9 69.4C85.9 65.4 82.6 62.1 78.6 62.1C76.7 62.1 75 62.8 73.7 64L60 54.1C60.8 52.6 61.3 50.8 61.3 48.9C61.3 46.6 60.6 44.5 59.4 42.7L73 28.3C74.8 29.5 76.9 30.2 79.3 30.2Z" fill="#000000" fill-rule="nonzero" opacity="1" stroke="none" vectornator:layerName="path"/>
</g>
</svg>
