<?xml version="1.0" encoding="UTF-8" standalone="no"?>
<!DOCTYPE svg PUBLIC "-//W3C//DTD SVG 1.1//EN" "http://www.w3.org/Graphics/SVG/1.1/DTD/svg11.dtd">
<!-- Created with Vectornator (http://vectornator.io/) -->
<svg height="100%" stroke-miterlimit="10" style="fill-rule:nonzero;clip-rule:evenodd;stroke-linecap:round;stroke-linejoin:round;" version="1.1" viewBox="0 0 50 62.5" width="100%" xml:space="preserve" xmlns="http://www.w3.org/2000/svg" xmlns:vectornator="http://vectornator.io" xmlns:xlink="http://www.w3.org/1999/xlink">
<defs/>
<clipPath id="ArtboardFrame">
<rect height="62.5" width="50" x="0" y="0"/>
</clipPath>
<g clip-path="url(#ArtboardFrame)" id="Sans-titre" vectornator:layerName="Sans titre">
<path d="M10 49C14.962 49 19 44.962 19 40C19 35.038 14.962 31 10 31C5.038 31 1 35.038 1 40C1 44.962 5.038 49 10 49ZM10 33C13.86 33 17 36.14 17 40C17 43.86 13.86 47 10 47C6.14 47 3 43.86 3 40C3 36.14 6.14 33 10 33Z" fill="#000000" fill-rule="nonzero" opacity="1" stroke="none" vectornator:layerName="path"/>
<path d="M31 49L49 49L49 31L31 31L31 49ZM33 33L47 33L47 47L33 47L33 33Z" fill="#000000" fill-rule="nonzero" opacity="1" stroke="none" vectornator:layerName="path"/>
<path d="M34.618 20L25 0.764L15.382 20L34.618 20ZM31.382 18L18.618 18L25 5.236L31.382 18Z" fill="#000000" fill-rule="nonzero" opacity="1" stroke="none" vectornator:layerName="path"/>
<path d="M41 25C41 26.221 40.843 27.488 40.535 28.765L42.479 29.235C42.825 27.804 43 26.379 43 25C43 18.344 39.347 12.259 33.467 9.118L32.525 10.882C37.752 13.674 41 19.084 41 25Z" fill="#000000" fill-rule="nonzero" opacity="1" stroke="none" vectornator:layerName="path"/>
<path d="M21.235 40.535L20.765 42.479C22.196 42.825 23.621 43 25 43C26.379 43 27.804 42.825 29.235 42.479L28.765 40.535C26.21 41.152 23.79 41.152 21.235 40.535Z" fill="#000000" fill-rule="nonzero" opacity="1" stroke="none" vectornator:layerName="path"/>
<path d="M9.465 28.765C9.157 27.488 9 26.221 9 25C9 19.084 12.248 13.674 17.476 10.882L16.534 9.118C10.653 12.259 7 18.344 7 25C7 26.379 7.175 27.804 7.521 29.235L9.465 28.765Z" fill="#000000" fill-rule="nonzero" opacity="1" stroke="none" vectornator:layerName="path"/>
<g fill="#000000" opacity="1" stroke="none" vectornator:layerName="text">
<path d="M1.8457 67.5898C1.85091 67.444 1.8763 67.3372 1.92188 67.2695C2.00391 67.1497 2.16211 67.0898 2.39648 67.0898C2.41862 67.0898 2.44141 67.0905 2.46484 67.0918C2.48828 67.0931 2.51497 67.0951 2.54492 67.0977L2.54492 67.418C2.50846 67.4154 2.4821 67.4137 2.46582 67.4131C2.44954 67.4124 2.43424 67.4121 2.41992 67.4121C2.31315 67.4121 2.24935 67.4398 2.22852 67.4951C2.20768 67.5505 2.19727 67.6914 2.19727 67.918L2.54492 67.918L2.54492 68.1953L2.19336 68.1953L2.19336 70L1.8457 70L1.8457 68.1953L1.55469 68.1953L1.55469 67.918L1.8457 67.918L1.8457 67.5898Z"/>
<path d="M2.87891 67.9082L3.21289 67.9082L3.21289 68.2695C3.24023 68.1992 3.30729 68.1136 3.41406 68.0127C3.52083 67.9118 3.64388 67.8613 3.7832 67.8613C3.78971 67.8613 3.80078 67.862 3.81641 67.8633C3.83203 67.8646 3.85872 67.8672 3.89648 67.8711L3.89648 68.2422C3.87565 68.2383 3.85645 68.2357 3.83887 68.2344C3.82129 68.2331 3.80208 68.2324 3.78125 68.2324C3.60417 68.2324 3.4681 68.2894 3.37305 68.4033C3.27799 68.5173 3.23047 68.6484 3.23047 68.7969L3.23047 70L2.87891 70L2.87891 67.9082Z"/>
<path d="M5.03125 69.7734C5.26432 69.7734 5.42415 69.6852 5.51074 69.5088C5.59733 69.3324 5.64062 69.1361 5.64062 68.9199C5.64062 68.7246 5.60938 68.5658 5.54688 68.4434C5.44792 68.2507 5.27734 68.1543 5.03516 68.1543C4.82031 68.1543 4.66406 68.2363 4.56641 68.4004C4.46875 68.5645 4.41992 68.7624 4.41992 68.9941C4.41992 69.2168 4.46875 69.4023 4.56641 69.5508C4.66406 69.6992 4.81901 69.7734 5.03125 69.7734ZM5.04492 67.8477C5.31445 67.8477 5.54232 67.9375 5.72852 68.1172C5.91471 68.2969 6.00781 68.5612 6.00781 68.9102C6.00781 69.2474 5.92578 69.526 5.76172 69.7461C5.59766 69.9661 5.3431 70.0762 4.99805 70.0762C4.71029 70.0762 4.48177 69.9788 4.3125 69.7842C4.14323 69.5895 4.05859 69.3281 4.05859 69C4.05859 68.6484 4.14779 68.3685 4.32617 68.1602C4.50456 67.9518 4.74414 67.8477 5.04492 67.8477Z"/>
<path d="M6.42578 67.9082L6.77344 67.9082L6.77344 68.2051C6.85677 68.1022 6.93229 68.0273 7 67.9805C7.11589 67.901 7.2474 67.8613 7.39453 67.8613C7.5612 67.8613 7.69531 67.9023 7.79688 67.9844C7.85417 68.0313 7.90625 68.1003 7.95312 68.1914C8.03125 68.0794 8.12305 67.9964 8.22852 67.9424C8.33398 67.8883 8.45247 67.8613 8.58398 67.8613C8.86523 67.8613 9.05664 67.9629 9.1582 68.166C9.21289 68.2754 9.24023 68.4225 9.24023 68.6074L9.24023 70L8.875 70L8.875 68.5469C8.875 68.4076 8.84017 68.3118 8.77051 68.2598C8.70085 68.2077 8.61589 68.1816 8.51562 68.1816C8.3776 68.1816 8.25879 68.2279 8.15918 68.3203C8.05957 68.4128 8.00977 68.5671 8.00977 68.7832L8.00977 70L7.65234 70L7.65234 68.6348C7.65234 68.4928 7.63542 68.3893 7.60156 68.3242C7.54818 68.2266 7.44857 68.1777 7.30273 68.1777C7.16992 68.1777 7.04915 68.2292 6.94043 68.332C6.83171 68.4349 6.77734 68.6211 6.77734 68.8906L6.77734 70L6.42578 70L6.42578 67.9082Z"/>
<path d="M10.9395 67.3242L11.2949 67.3242L11.2949 67.9082L11.6289 67.9082L11.6289 68.1953L11.2949 68.1953L11.2949 69.5605C11.2949 69.6335 11.3197 69.6823 11.3691 69.707C11.3965 69.7214 11.4421 69.7285 11.5059 69.7285C11.5228 69.7285 11.541 69.7282 11.5605 69.7275C11.5801 69.7269 11.6029 69.7253 11.6289 69.7227L11.6289 70C11.5885 70.0117 11.5465 70.0202 11.5029 70.0254C11.4593 70.0306 11.4121 70.0332 11.3613 70.0332C11.1973 70.0332 11.0859 69.9912 11.0273 69.9072C10.9687 69.8232 10.9395 69.7142 10.9395 69.5801L10.9395 68.1953L10.6562 68.1953L10.6562 67.9082L10.9395 67.9082L10.9395 67.3242Z"/>
<path d="M11.9805 67.1211L12.332 67.1211L12.332 68.1914C12.4154 68.0859 12.4902 68.0117 12.5566 67.9688C12.6699 67.8945 12.8112 67.8574 12.9805 67.8574C13.2839 67.8574 13.4896 67.9635 13.5977 68.1758C13.6563 68.2917 13.6855 68.4525 13.6855 68.6582L13.6855 70L13.3242 70L13.3242 68.6816C13.3242 68.528 13.3047 68.4154 13.2656 68.3438C13.2018 68.2292 13.082 68.1719 12.9062 68.1719C12.7604 68.1719 12.6283 68.222 12.5098 68.3223C12.3913 68.4225 12.332 68.612 12.332 68.8906L12.332 70L11.9805 70L11.9805 67.1211Z"/>
<path d="M15.0762 67.8613C15.2246 67.8613 15.3685 67.8962 15.5078 67.9658C15.6471 68.0355 15.7533 68.1257 15.8262 68.2363C15.8965 68.3418 15.9434 68.4648 15.9668 68.6055C15.9876 68.7018 15.998 68.8555 15.998 69.0664L14.4648 69.0664C14.4714 69.2786 14.5215 69.4489 14.6152 69.5771C14.709 69.7054 14.8542 69.7695 15.0508 69.7695C15.2344 69.7695 15.3809 69.709 15.4902 69.5879C15.5527 69.5176 15.597 69.4362 15.623 69.3438L15.9688 69.3438C15.9596 69.4206 15.9294 69.5062 15.8779 69.6006C15.8265 69.695 15.7689 69.7721 15.7051 69.832C15.5983 69.9362 15.4661 70.0065 15.3086 70.043C15.224 70.0638 15.1283 70.0742 15.0215 70.0742C14.7611 70.0742 14.5404 69.9795 14.3594 69.79C14.1784 69.6006 14.0879 69.3353 14.0879 68.9941C14.0879 68.6582 14.179 68.3854 14.3613 68.1758C14.5436 67.9661 14.7819 67.8613 15.0762 67.8613ZM15.6367 68.7871C15.6224 68.6348 15.5892 68.513 15.5371 68.4219C15.4408 68.2526 15.2799 68.168 15.0547 68.168C14.8932 68.168 14.7578 68.2262 14.6484 68.3428C14.5391 68.4593 14.4811 68.6074 14.4746 68.7871L15.6367 68.7871Z"/>
<path d="M17.5879 67.1309L18.0469 67.1309L19.4961 69.4551L19.4961 67.1309L19.8652 67.1309L19.8652 70L19.4297 70L17.959 67.6777L17.959 70L17.5879 70L17.5879 67.1309Z"/>
<path d="M21.2598 69.7734C21.4928 69.7734 21.6527 69.6852 21.7393 69.5088C21.8258 69.3324 21.8691 69.1361 21.8691 68.9199C21.8691 68.7246 21.8379 68.5658 21.7754 68.4434C21.6764 68.2507 21.5059 68.1543 21.2637 68.1543C21.0488 68.1543 20.8926 68.2363 20.7949 68.4004C20.6973 68.5645 20.6484 68.7624 20.6484 68.9941C20.6484 69.2168 20.6973 69.4023 20.7949 69.5508C20.8926 69.6992 21.0475 69.7734 21.2598 69.7734ZM21.2734 67.8477C21.543 67.8477 21.7708 67.9375 21.957 68.1172C22.1432 68.2969 22.2363 68.5612 22.2363 68.9102C22.2363 69.2474 22.1543 69.526 21.9902 69.7461C21.8262 69.9661 21.5716 70.0762 21.2266 70.0762C20.9388 70.0762 20.7103 69.9788 20.541 69.7842C20.3717 69.5895 20.2871 69.3281 20.2871 69C20.2871 68.6484 20.3763 68.3685 20.5547 68.1602C20.7331 67.9518 20.9727 67.8477 21.2734 67.8477Z"/>
<path d="M23.0059 67.9082L23.0059 69.2969C23.0059 69.4036 23.0228 69.4909 23.0566 69.5586C23.1191 69.6836 23.2357 69.7461 23.4062 69.7461C23.651 69.7461 23.8177 69.6367 23.9062 69.418C23.9544 69.3008 23.9785 69.14 23.9785 68.9355L23.9785 67.9082L24.3301 67.9082L24.3301 70L23.998 70L24.002 69.6914C23.9564 69.7708 23.8997 69.8379 23.832 69.8926C23.6979 70.002 23.5352 70.0566 23.3438 70.0566C23.0456 70.0566 22.8424 69.957 22.7344 69.7578C22.6758 69.651 22.6465 69.5085 22.6465 69.3301L22.6465 67.9082L23.0059 67.9082Z"/>
<path d="M24.8789 67.9082L25.2129 67.9082L25.2129 68.2051C25.3118 68.0827 25.4167 67.9948 25.5273 67.9414C25.638 67.888 25.7611 67.8613 25.8965 67.8613C26.1934 67.8613 26.3939 67.9648 26.498 68.1719C26.5553 68.2852 26.584 68.4473 26.584 68.6582L26.584 70L26.2266 70L26.2266 68.6816C26.2266 68.554 26.2077 68.4512 26.1699 68.373C26.1074 68.2428 25.9941 68.1777 25.8301 68.1777C25.7467 68.1777 25.6784 68.1862 25.625 68.2031C25.5286 68.2318 25.444 68.2891 25.3711 68.375C25.3125 68.444 25.2744 68.5153 25.2568 68.5889C25.2393 68.6624 25.2305 68.7676 25.2305 68.9043L25.2305 70L24.8789 70L24.8789 67.9082Z"/>
<path d="M28.2988 67.1309L29.5898 67.1309C29.8451 67.1309 30.0508 67.2028 30.207 67.3467C30.3633 67.4906 30.4414 67.6927 30.4414 67.9531C30.4414 68.1771 30.3717 68.3721 30.2324 68.5381C30.0931 68.7041 29.8789 68.7871 29.5898 68.7871L28.6875 68.7871L28.6875 70L28.2988 70L28.2988 67.1309ZM30.0488 67.9551C30.0488 67.7441 29.9707 67.6009 29.8145 67.5254C29.7285 67.485 29.6107 67.4648 29.4609 67.4648L28.6875 67.4648L28.6875 68.459L29.4609 68.459C29.6354 68.459 29.777 68.4219 29.8857 68.3477C29.9945 68.2734 30.0488 68.1426 30.0488 67.9551Z"/>
<path d="M30.8926 67.9082L31.2266 67.9082L31.2266 68.2695C31.2539 68.1992 31.321 68.1136 31.4277 68.0127C31.5345 67.9118 31.6576 67.8613 31.7969 67.8613C31.8034 67.8613 31.8145 67.862 31.8301 67.8633C31.8457 67.8646 31.8724 67.8672 31.9102 67.8711L31.9102 68.2422C31.8893 68.2383 31.8701 68.2357 31.8525 68.2344C31.835 68.2331 31.8158 68.2324 31.7949 68.2324C31.6178 68.2324 31.4818 68.2894 31.3867 68.4033C31.2917 68.5173 31.2441 68.6484 31.2441 68.7969L31.2441 70L30.8926 70L30.8926 67.9082Z"/>
<path d="M33.0449 69.7734C33.278 69.7734 33.4378 69.6852 33.5244 69.5088C33.611 69.3324 33.6543 69.1361 33.6543 68.9199C33.6543 68.7246 33.623 68.5658 33.5605 68.4434C33.4616 68.2507 33.291 68.1543 33.0488 68.1543C32.834 68.1543 32.6777 68.2363 32.5801 68.4004C32.4824 68.5645 32.4336 68.7624 32.4336 68.9941C32.4336 69.2168 32.4824 69.4023 32.5801 69.5508C32.6777 69.6992 32.8327 69.7734 33.0449 69.7734ZM33.0586 67.8477C33.3281 67.8477 33.556 67.9375 33.7422 68.1172C33.9284 68.2969 34.0215 68.5612 34.0215 68.9102C34.0215 69.2474 33.9395 69.526 33.7754 69.7461C33.6113 69.9661 33.3568 70.0762 33.0117 70.0762C32.724 70.0762 32.4954 69.9788 32.3262 69.7842C32.1569 69.5895 32.0723 69.3281 32.0723 69C32.0723 68.6484 32.1615 68.3685 32.3398 68.1602C32.5182 67.9518 32.7578 67.8477 33.0586 67.8477Z"/>
<path d="M34.791 67.5371L34.4395 67.5371L34.4395 67.1309L34.791 67.1309L34.791 67.5371ZM34.1074 70.5293C34.265 70.5241 34.3597 70.5101 34.3916 70.4873C34.4235 70.4645 34.4395 70.3932 34.4395 70.2734L34.4395 67.918L34.791 67.918L34.791 70.3105C34.791 70.4629 34.7663 70.5768 34.7168 70.6523C34.6348 70.7799 34.4792 70.8438 34.25 70.8438C34.2331 70.8438 34.2152 70.8431 34.1963 70.8418C34.1774 70.8405 34.1478 70.8379 34.1074 70.834L34.1074 70.5293Z"/>
<path d="M36.1992 67.8613C36.3477 67.8613 36.4915 67.8962 36.6309 67.9658C36.7702 68.0355 36.8763 68.1257 36.9492 68.2363C37.0195 68.3418 37.0664 68.4648 37.0898 68.6055C37.1107 68.7018 37.1211 68.8555 37.1211 69.0664L35.5879 69.0664C35.5944 69.2786 35.6445 69.4489 35.7383 69.5771C35.832 69.7054 35.9772 69.7695 36.1738 69.7695C36.3574 69.7695 36.5039 69.709 36.6133 69.5879C36.6758 69.5176 36.7201 69.4362 36.7461 69.3438L37.0918 69.3438C37.0827 69.4206 37.0524 69.5062 37.001 69.6006C36.9495 69.695 36.8919 69.7721 36.8281 69.832C36.7214 69.9362 36.5892 70.0065 36.4316 70.043C36.347 70.0638 36.2513 70.0742 36.1445 70.0742C35.8841 70.0742 35.6634 69.9795 35.4824 69.79C35.3014 69.6006 35.2109 69.3353 35.2109 68.9941C35.2109 68.6582 35.3021 68.3854 35.4844 68.1758C35.6667 67.9661 35.9049 67.8613 36.1992 67.8613ZM36.7598 68.7871C36.7454 68.6348 36.7122 68.513 36.6602 68.4219C36.5638 68.2526 36.403 68.168 36.1777 68.168C36.0163 68.168 35.8809 68.2262 35.7715 68.3428C35.6621 68.4593 35.6042 68.6074 35.5977 68.7871L36.7598 68.7871Z"/>
<path d="M38.3594 67.8477C38.5951 67.8477 38.7868 67.9049 38.9346 68.0195C39.0824 68.1341 39.1712 68.3314 39.2012 68.6113L38.8594 68.6113C38.8385 68.4824 38.791 68.3753 38.7168 68.29C38.6426 68.2048 38.5234 68.1621 38.3594 68.1621C38.1354 68.1621 37.9753 68.2715 37.8789 68.4902C37.8164 68.6322 37.7852 68.8073 37.7852 69.0156C37.7852 69.2253 37.8294 69.4017 37.918 69.5449C38.0065 69.6882 38.1458 69.7598 38.3359 69.7598C38.4818 69.7598 38.5973 69.7152 38.6826 69.626C38.7679 69.5368 38.8268 69.4147 38.8594 69.2598L39.2012 69.2598C39.1621 69.5371 39.0645 69.7399 38.9082 69.8682C38.752 69.9964 38.5521 70.0605 38.3086 70.0605C38.0352 70.0605 37.8171 69.9606 37.6543 69.7607C37.4915 69.5609 37.4102 69.3112 37.4102 69.0117C37.4102 68.6445 37.4993 68.3587 37.6777 68.1543C37.8561 67.9499 38.0833 67.8477 38.3594 67.8477Z"/>
<path d="M39.623 67.3242L39.9785 67.3242L39.9785 67.9082L40.3125 67.9082L40.3125 68.1953L39.9785 68.1953L39.9785 69.5605C39.9785 69.6335 40.0033 69.6823 40.0527 69.707C40.0801 69.7214 40.1257 69.7285 40.1895 69.7285C40.2064 69.7285 40.2246 69.7282 40.2441 69.7275C40.2637 69.7269 40.2865 69.7253 40.3125 69.7227L40.3125 70C40.2721 70.0117 40.2301 70.0202 40.1865 70.0254C40.1429 70.0306 40.0957 70.0332 40.0449 70.0332C39.8809 70.0332 39.7695 69.9912 39.7109 69.9072C39.6523 69.8232 39.623 69.7142 39.623 69.5801L39.623 68.1953L39.3398 68.1953L39.3398 67.9082L39.623 67.9082L39.623 67.3242Z"/>
</g>
</g>
</svg>
