<svg class="svg-icon" style="width: 1em; height: 1em;vertical-align: middle;fill: currentColor;overflow: hidden;" viewBox="0 0 1024 1024" version="1.1" xmlns="http://www.w3.org/2000/svg"><path d="M38.4 873.6c-22.4 0-38.4-19.2-38.4-38.4V230.4C0 211.2 19.2 192 38.4 192h944c22.4 0 41.6 19.2 41.6 38.4v604.8c0 22.4-19.2 38.4-38.4 38.4H38.4z m889.6-96V288H96v486.4h96v-147.2c0-16 9.6-25.6 25.6-25.6s22.4 9.6 22.4 25.6v147.2h73.6v-316.8c0-25.6 22.4-48 48-48s48 22.4 48 48v316.8h73.6v-147.2c0-16 6.4-25.6 25.6-25.6 16 0 25.6 6.4 25.6 25.6v147.2H608v-316.8c0-25.6 22.4-48 48-48s48 22.4 48 48v316.8h73.6v-147.2c0-16 6.4-38.4 22.4-38.4 16 0 25.6 22.4 25.6 38.4v147.2H928z"  /></svg>